%TF.GenerationSoftware,KiCad,Pcbnew,5.99.0+really5.1.10+dfsg1-1+b1*%
%TF.CreationDate,2021-10-11T23:19:45-07:00*%
%TF.ProjectId,roPlug,726f506c-7567-42e6-9b69-6361645f7063,rev?*%
%TF.SameCoordinates,Original*%
%TF.FileFunction,Soldermask,Top*%
%TF.FilePolarity,Negative*%
%FSLAX46Y46*%
G04 Gerber Fmt 4.6, Leading zero omitted, Abs format (unit mm)*
G04 Created by KiCad (PCBNEW 5.99.0+really5.1.10+dfsg1-1+b1) date 2021-10-11 23:19:45*
%MOMM*%
%LPD*%
G01*
G04 APERTURE LIST*
%ADD10R,1.200000X1.800000*%
%ADD11R,1.700000X1.700000*%
%ADD12R,0.380000X1.000000*%
%ADD13R,0.700000X1.150000*%
%ADD14C,2.000000*%
%ADD15R,2.000000X3.200000*%
%ADD16R,2.000000X2.000000*%
%ADD17R,5.200000X5.200000*%
G04 APERTURE END LIST*
D10*
%TO.C,Y1*%
X102200000Y-56600000D03*
X102200000Y-52600000D03*
X104600000Y-52600000D03*
X104600000Y-56600000D03*
%TD*%
D11*
%TO.C,RST1*%
X117700000Y-57700000D03*
%TD*%
D12*
%TO.C,P1*%
X115250000Y-74960000D03*
X114750000Y-74960000D03*
X114250000Y-74960000D03*
X113750000Y-74960000D03*
X113250000Y-74960000D03*
X112750000Y-74960000D03*
X112250000Y-74960000D03*
X111750000Y-74960000D03*
X111250000Y-74960000D03*
X110750000Y-74960000D03*
X110250000Y-74960000D03*
X109750000Y-74960000D03*
D13*
X115920000Y-74120000D03*
%TD*%
D14*
%TO.C,SW1*%
X114900000Y-54800000D03*
X109900000Y-54800000D03*
D15*
X118000000Y-61800000D03*
X106800000Y-61800000D03*
D14*
X114900000Y-69300000D03*
X112400000Y-69300000D03*
D16*
X109900000Y-69300000D03*
%TD*%
%TO.C,U1*%
G36*
G01*
X116225000Y-66087500D02*
X116225000Y-66212500D01*
G75*
G02*
X116162500Y-66275000I-62500J0D01*
G01*
X115212500Y-66275000D01*
G75*
G02*
X115150000Y-66212500I0J62500D01*
G01*
X115150000Y-66087500D01*
G75*
G02*
X115212500Y-66025000I62500J0D01*
G01*
X116162500Y-66025000D01*
G75*
G02*
X116225000Y-66087500I0J-62500D01*
G01*
G37*
G36*
G01*
X116225000Y-65587500D02*
X116225000Y-65712500D01*
G75*
G02*
X116162500Y-65775000I-62500J0D01*
G01*
X115212500Y-65775000D01*
G75*
G02*
X115150000Y-65712500I0J62500D01*
G01*
X115150000Y-65587500D01*
G75*
G02*
X115212500Y-65525000I62500J0D01*
G01*
X116162500Y-65525000D01*
G75*
G02*
X116225000Y-65587500I0J-62500D01*
G01*
G37*
G36*
G01*
X116225000Y-65087500D02*
X116225000Y-65212500D01*
G75*
G02*
X116162500Y-65275000I-62500J0D01*
G01*
X115212500Y-65275000D01*
G75*
G02*
X115150000Y-65212500I0J62500D01*
G01*
X115150000Y-65087500D01*
G75*
G02*
X115212500Y-65025000I62500J0D01*
G01*
X116162500Y-65025000D01*
G75*
G02*
X116225000Y-65087500I0J-62500D01*
G01*
G37*
G36*
G01*
X116225000Y-64587500D02*
X116225000Y-64712500D01*
G75*
G02*
X116162500Y-64775000I-62500J0D01*
G01*
X115212500Y-64775000D01*
G75*
G02*
X115150000Y-64712500I0J62500D01*
G01*
X115150000Y-64587500D01*
G75*
G02*
X115212500Y-64525000I62500J0D01*
G01*
X116162500Y-64525000D01*
G75*
G02*
X116225000Y-64587500I0J-62500D01*
G01*
G37*
G36*
G01*
X116225000Y-64087500D02*
X116225000Y-64212500D01*
G75*
G02*
X116162500Y-64275000I-62500J0D01*
G01*
X115212500Y-64275000D01*
G75*
G02*
X115150000Y-64212500I0J62500D01*
G01*
X115150000Y-64087500D01*
G75*
G02*
X115212500Y-64025000I62500J0D01*
G01*
X116162500Y-64025000D01*
G75*
G02*
X116225000Y-64087500I0J-62500D01*
G01*
G37*
G36*
G01*
X116225000Y-63587500D02*
X116225000Y-63712500D01*
G75*
G02*
X116162500Y-63775000I-62500J0D01*
G01*
X115212500Y-63775000D01*
G75*
G02*
X115150000Y-63712500I0J62500D01*
G01*
X115150000Y-63587500D01*
G75*
G02*
X115212500Y-63525000I62500J0D01*
G01*
X116162500Y-63525000D01*
G75*
G02*
X116225000Y-63587500I0J-62500D01*
G01*
G37*
G36*
G01*
X116225000Y-63087500D02*
X116225000Y-63212500D01*
G75*
G02*
X116162500Y-63275000I-62500J0D01*
G01*
X115212500Y-63275000D01*
G75*
G02*
X115150000Y-63212500I0J62500D01*
G01*
X115150000Y-63087500D01*
G75*
G02*
X115212500Y-63025000I62500J0D01*
G01*
X116162500Y-63025000D01*
G75*
G02*
X116225000Y-63087500I0J-62500D01*
G01*
G37*
G36*
G01*
X116225000Y-62587500D02*
X116225000Y-62712500D01*
G75*
G02*
X116162500Y-62775000I-62500J0D01*
G01*
X115212500Y-62775000D01*
G75*
G02*
X115150000Y-62712500I0J62500D01*
G01*
X115150000Y-62587500D01*
G75*
G02*
X115212500Y-62525000I62500J0D01*
G01*
X116162500Y-62525000D01*
G75*
G02*
X116225000Y-62587500I0J-62500D01*
G01*
G37*
G36*
G01*
X116225000Y-62087500D02*
X116225000Y-62212500D01*
G75*
G02*
X116162500Y-62275000I-62500J0D01*
G01*
X115212500Y-62275000D01*
G75*
G02*
X115150000Y-62212500I0J62500D01*
G01*
X115150000Y-62087500D01*
G75*
G02*
X115212500Y-62025000I62500J0D01*
G01*
X116162500Y-62025000D01*
G75*
G02*
X116225000Y-62087500I0J-62500D01*
G01*
G37*
G36*
G01*
X116225000Y-61587500D02*
X116225000Y-61712500D01*
G75*
G02*
X116162500Y-61775000I-62500J0D01*
G01*
X115212500Y-61775000D01*
G75*
G02*
X115150000Y-61712500I0J62500D01*
G01*
X115150000Y-61587500D01*
G75*
G02*
X115212500Y-61525000I62500J0D01*
G01*
X116162500Y-61525000D01*
G75*
G02*
X116225000Y-61587500I0J-62500D01*
G01*
G37*
G36*
G01*
X116225000Y-61087500D02*
X116225000Y-61212500D01*
G75*
G02*
X116162500Y-61275000I-62500J0D01*
G01*
X115212500Y-61275000D01*
G75*
G02*
X115150000Y-61212500I0J62500D01*
G01*
X115150000Y-61087500D01*
G75*
G02*
X115212500Y-61025000I62500J0D01*
G01*
X116162500Y-61025000D01*
G75*
G02*
X116225000Y-61087500I0J-62500D01*
G01*
G37*
G36*
G01*
X114975000Y-59837500D02*
X114975000Y-60787500D01*
G75*
G02*
X114912500Y-60850000I-62500J0D01*
G01*
X114787500Y-60850000D01*
G75*
G02*
X114725000Y-60787500I0J62500D01*
G01*
X114725000Y-59837500D01*
G75*
G02*
X114787500Y-59775000I62500J0D01*
G01*
X114912500Y-59775000D01*
G75*
G02*
X114975000Y-59837500I0J-62500D01*
G01*
G37*
G36*
G01*
X114475000Y-59837500D02*
X114475000Y-60787500D01*
G75*
G02*
X114412500Y-60850000I-62500J0D01*
G01*
X114287500Y-60850000D01*
G75*
G02*
X114225000Y-60787500I0J62500D01*
G01*
X114225000Y-59837500D01*
G75*
G02*
X114287500Y-59775000I62500J0D01*
G01*
X114412500Y-59775000D01*
G75*
G02*
X114475000Y-59837500I0J-62500D01*
G01*
G37*
G36*
G01*
X113975000Y-59837500D02*
X113975000Y-60787500D01*
G75*
G02*
X113912500Y-60850000I-62500J0D01*
G01*
X113787500Y-60850000D01*
G75*
G02*
X113725000Y-60787500I0J62500D01*
G01*
X113725000Y-59837500D01*
G75*
G02*
X113787500Y-59775000I62500J0D01*
G01*
X113912500Y-59775000D01*
G75*
G02*
X113975000Y-59837500I0J-62500D01*
G01*
G37*
G36*
G01*
X113475000Y-59837500D02*
X113475000Y-60787500D01*
G75*
G02*
X113412500Y-60850000I-62500J0D01*
G01*
X113287500Y-60850000D01*
G75*
G02*
X113225000Y-60787500I0J62500D01*
G01*
X113225000Y-59837500D01*
G75*
G02*
X113287500Y-59775000I62500J0D01*
G01*
X113412500Y-59775000D01*
G75*
G02*
X113475000Y-59837500I0J-62500D01*
G01*
G37*
G36*
G01*
X112975000Y-59837500D02*
X112975000Y-60787500D01*
G75*
G02*
X112912500Y-60850000I-62500J0D01*
G01*
X112787500Y-60850000D01*
G75*
G02*
X112725000Y-60787500I0J62500D01*
G01*
X112725000Y-59837500D01*
G75*
G02*
X112787500Y-59775000I62500J0D01*
G01*
X112912500Y-59775000D01*
G75*
G02*
X112975000Y-59837500I0J-62500D01*
G01*
G37*
G36*
G01*
X112475000Y-59837500D02*
X112475000Y-60787500D01*
G75*
G02*
X112412500Y-60850000I-62500J0D01*
G01*
X112287500Y-60850000D01*
G75*
G02*
X112225000Y-60787500I0J62500D01*
G01*
X112225000Y-59837500D01*
G75*
G02*
X112287500Y-59775000I62500J0D01*
G01*
X112412500Y-59775000D01*
G75*
G02*
X112475000Y-59837500I0J-62500D01*
G01*
G37*
G36*
G01*
X111975000Y-59837500D02*
X111975000Y-60787500D01*
G75*
G02*
X111912500Y-60850000I-62500J0D01*
G01*
X111787500Y-60850000D01*
G75*
G02*
X111725000Y-60787500I0J62500D01*
G01*
X111725000Y-59837500D01*
G75*
G02*
X111787500Y-59775000I62500J0D01*
G01*
X111912500Y-59775000D01*
G75*
G02*
X111975000Y-59837500I0J-62500D01*
G01*
G37*
G36*
G01*
X111475000Y-59837500D02*
X111475000Y-60787500D01*
G75*
G02*
X111412500Y-60850000I-62500J0D01*
G01*
X111287500Y-60850000D01*
G75*
G02*
X111225000Y-60787500I0J62500D01*
G01*
X111225000Y-59837500D01*
G75*
G02*
X111287500Y-59775000I62500J0D01*
G01*
X111412500Y-59775000D01*
G75*
G02*
X111475000Y-59837500I0J-62500D01*
G01*
G37*
G36*
G01*
X110975000Y-59837500D02*
X110975000Y-60787500D01*
G75*
G02*
X110912500Y-60850000I-62500J0D01*
G01*
X110787500Y-60850000D01*
G75*
G02*
X110725000Y-60787500I0J62500D01*
G01*
X110725000Y-59837500D01*
G75*
G02*
X110787500Y-59775000I62500J0D01*
G01*
X110912500Y-59775000D01*
G75*
G02*
X110975000Y-59837500I0J-62500D01*
G01*
G37*
G36*
G01*
X110475000Y-59837500D02*
X110475000Y-60787500D01*
G75*
G02*
X110412500Y-60850000I-62500J0D01*
G01*
X110287500Y-60850000D01*
G75*
G02*
X110225000Y-60787500I0J62500D01*
G01*
X110225000Y-59837500D01*
G75*
G02*
X110287500Y-59775000I62500J0D01*
G01*
X110412500Y-59775000D01*
G75*
G02*
X110475000Y-59837500I0J-62500D01*
G01*
G37*
G36*
G01*
X109975000Y-59837500D02*
X109975000Y-60787500D01*
G75*
G02*
X109912500Y-60850000I-62500J0D01*
G01*
X109787500Y-60850000D01*
G75*
G02*
X109725000Y-60787500I0J62500D01*
G01*
X109725000Y-59837500D01*
G75*
G02*
X109787500Y-59775000I62500J0D01*
G01*
X109912500Y-59775000D01*
G75*
G02*
X109975000Y-59837500I0J-62500D01*
G01*
G37*
G36*
G01*
X109550000Y-61087500D02*
X109550000Y-61212500D01*
G75*
G02*
X109487500Y-61275000I-62500J0D01*
G01*
X108537500Y-61275000D01*
G75*
G02*
X108475000Y-61212500I0J62500D01*
G01*
X108475000Y-61087500D01*
G75*
G02*
X108537500Y-61025000I62500J0D01*
G01*
X109487500Y-61025000D01*
G75*
G02*
X109550000Y-61087500I0J-62500D01*
G01*
G37*
G36*
G01*
X109550000Y-61587500D02*
X109550000Y-61712500D01*
G75*
G02*
X109487500Y-61775000I-62500J0D01*
G01*
X108537500Y-61775000D01*
G75*
G02*
X108475000Y-61712500I0J62500D01*
G01*
X108475000Y-61587500D01*
G75*
G02*
X108537500Y-61525000I62500J0D01*
G01*
X109487500Y-61525000D01*
G75*
G02*
X109550000Y-61587500I0J-62500D01*
G01*
G37*
G36*
G01*
X109550000Y-62087500D02*
X109550000Y-62212500D01*
G75*
G02*
X109487500Y-62275000I-62500J0D01*
G01*
X108537500Y-62275000D01*
G75*
G02*
X108475000Y-62212500I0J62500D01*
G01*
X108475000Y-62087500D01*
G75*
G02*
X108537500Y-62025000I62500J0D01*
G01*
X109487500Y-62025000D01*
G75*
G02*
X109550000Y-62087500I0J-62500D01*
G01*
G37*
G36*
G01*
X109550000Y-62587500D02*
X109550000Y-62712500D01*
G75*
G02*
X109487500Y-62775000I-62500J0D01*
G01*
X108537500Y-62775000D01*
G75*
G02*
X108475000Y-62712500I0J62500D01*
G01*
X108475000Y-62587500D01*
G75*
G02*
X108537500Y-62525000I62500J0D01*
G01*
X109487500Y-62525000D01*
G75*
G02*
X109550000Y-62587500I0J-62500D01*
G01*
G37*
G36*
G01*
X109550000Y-63087500D02*
X109550000Y-63212500D01*
G75*
G02*
X109487500Y-63275000I-62500J0D01*
G01*
X108537500Y-63275000D01*
G75*
G02*
X108475000Y-63212500I0J62500D01*
G01*
X108475000Y-63087500D01*
G75*
G02*
X108537500Y-63025000I62500J0D01*
G01*
X109487500Y-63025000D01*
G75*
G02*
X109550000Y-63087500I0J-62500D01*
G01*
G37*
G36*
G01*
X109550000Y-63587500D02*
X109550000Y-63712500D01*
G75*
G02*
X109487500Y-63775000I-62500J0D01*
G01*
X108537500Y-63775000D01*
G75*
G02*
X108475000Y-63712500I0J62500D01*
G01*
X108475000Y-63587500D01*
G75*
G02*
X108537500Y-63525000I62500J0D01*
G01*
X109487500Y-63525000D01*
G75*
G02*
X109550000Y-63587500I0J-62500D01*
G01*
G37*
G36*
G01*
X109550000Y-64087500D02*
X109550000Y-64212500D01*
G75*
G02*
X109487500Y-64275000I-62500J0D01*
G01*
X108537500Y-64275000D01*
G75*
G02*
X108475000Y-64212500I0J62500D01*
G01*
X108475000Y-64087500D01*
G75*
G02*
X108537500Y-64025000I62500J0D01*
G01*
X109487500Y-64025000D01*
G75*
G02*
X109550000Y-64087500I0J-62500D01*
G01*
G37*
G36*
G01*
X109550000Y-64587500D02*
X109550000Y-64712500D01*
G75*
G02*
X109487500Y-64775000I-62500J0D01*
G01*
X108537500Y-64775000D01*
G75*
G02*
X108475000Y-64712500I0J62500D01*
G01*
X108475000Y-64587500D01*
G75*
G02*
X108537500Y-64525000I62500J0D01*
G01*
X109487500Y-64525000D01*
G75*
G02*
X109550000Y-64587500I0J-62500D01*
G01*
G37*
G36*
G01*
X109550000Y-65087500D02*
X109550000Y-65212500D01*
G75*
G02*
X109487500Y-65275000I-62500J0D01*
G01*
X108537500Y-65275000D01*
G75*
G02*
X108475000Y-65212500I0J62500D01*
G01*
X108475000Y-65087500D01*
G75*
G02*
X108537500Y-65025000I62500J0D01*
G01*
X109487500Y-65025000D01*
G75*
G02*
X109550000Y-65087500I0J-62500D01*
G01*
G37*
G36*
G01*
X109550000Y-65587500D02*
X109550000Y-65712500D01*
G75*
G02*
X109487500Y-65775000I-62500J0D01*
G01*
X108537500Y-65775000D01*
G75*
G02*
X108475000Y-65712500I0J62500D01*
G01*
X108475000Y-65587500D01*
G75*
G02*
X108537500Y-65525000I62500J0D01*
G01*
X109487500Y-65525000D01*
G75*
G02*
X109550000Y-65587500I0J-62500D01*
G01*
G37*
G36*
G01*
X109550000Y-66087500D02*
X109550000Y-66212500D01*
G75*
G02*
X109487500Y-66275000I-62500J0D01*
G01*
X108537500Y-66275000D01*
G75*
G02*
X108475000Y-66212500I0J62500D01*
G01*
X108475000Y-66087500D01*
G75*
G02*
X108537500Y-66025000I62500J0D01*
G01*
X109487500Y-66025000D01*
G75*
G02*
X109550000Y-66087500I0J-62500D01*
G01*
G37*
G36*
G01*
X109975000Y-66512500D02*
X109975000Y-67462500D01*
G75*
G02*
X109912500Y-67525000I-62500J0D01*
G01*
X109787500Y-67525000D01*
G75*
G02*
X109725000Y-67462500I0J62500D01*
G01*
X109725000Y-66512500D01*
G75*
G02*
X109787500Y-66450000I62500J0D01*
G01*
X109912500Y-66450000D01*
G75*
G02*
X109975000Y-66512500I0J-62500D01*
G01*
G37*
G36*
G01*
X110475000Y-66512500D02*
X110475000Y-67462500D01*
G75*
G02*
X110412500Y-67525000I-62500J0D01*
G01*
X110287500Y-67525000D01*
G75*
G02*
X110225000Y-67462500I0J62500D01*
G01*
X110225000Y-66512500D01*
G75*
G02*
X110287500Y-66450000I62500J0D01*
G01*
X110412500Y-66450000D01*
G75*
G02*
X110475000Y-66512500I0J-62500D01*
G01*
G37*
G36*
G01*
X110975000Y-66512500D02*
X110975000Y-67462500D01*
G75*
G02*
X110912500Y-67525000I-62500J0D01*
G01*
X110787500Y-67525000D01*
G75*
G02*
X110725000Y-67462500I0J62500D01*
G01*
X110725000Y-66512500D01*
G75*
G02*
X110787500Y-66450000I62500J0D01*
G01*
X110912500Y-66450000D01*
G75*
G02*
X110975000Y-66512500I0J-62500D01*
G01*
G37*
G36*
G01*
X111475000Y-66512500D02*
X111475000Y-67462500D01*
G75*
G02*
X111412500Y-67525000I-62500J0D01*
G01*
X111287500Y-67525000D01*
G75*
G02*
X111225000Y-67462500I0J62500D01*
G01*
X111225000Y-66512500D01*
G75*
G02*
X111287500Y-66450000I62500J0D01*
G01*
X111412500Y-66450000D01*
G75*
G02*
X111475000Y-66512500I0J-62500D01*
G01*
G37*
G36*
G01*
X111975000Y-66512500D02*
X111975000Y-67462500D01*
G75*
G02*
X111912500Y-67525000I-62500J0D01*
G01*
X111787500Y-67525000D01*
G75*
G02*
X111725000Y-67462500I0J62500D01*
G01*
X111725000Y-66512500D01*
G75*
G02*
X111787500Y-66450000I62500J0D01*
G01*
X111912500Y-66450000D01*
G75*
G02*
X111975000Y-66512500I0J-62500D01*
G01*
G37*
G36*
G01*
X112475000Y-66512500D02*
X112475000Y-67462500D01*
G75*
G02*
X112412500Y-67525000I-62500J0D01*
G01*
X112287500Y-67525000D01*
G75*
G02*
X112225000Y-67462500I0J62500D01*
G01*
X112225000Y-66512500D01*
G75*
G02*
X112287500Y-66450000I62500J0D01*
G01*
X112412500Y-66450000D01*
G75*
G02*
X112475000Y-66512500I0J-62500D01*
G01*
G37*
G36*
G01*
X112975000Y-66512500D02*
X112975000Y-67462500D01*
G75*
G02*
X112912500Y-67525000I-62500J0D01*
G01*
X112787500Y-67525000D01*
G75*
G02*
X112725000Y-67462500I0J62500D01*
G01*
X112725000Y-66512500D01*
G75*
G02*
X112787500Y-66450000I62500J0D01*
G01*
X112912500Y-66450000D01*
G75*
G02*
X112975000Y-66512500I0J-62500D01*
G01*
G37*
G36*
G01*
X113475000Y-66512500D02*
X113475000Y-67462500D01*
G75*
G02*
X113412500Y-67525000I-62500J0D01*
G01*
X113287500Y-67525000D01*
G75*
G02*
X113225000Y-67462500I0J62500D01*
G01*
X113225000Y-66512500D01*
G75*
G02*
X113287500Y-66450000I62500J0D01*
G01*
X113412500Y-66450000D01*
G75*
G02*
X113475000Y-66512500I0J-62500D01*
G01*
G37*
G36*
G01*
X113975000Y-66512500D02*
X113975000Y-67462500D01*
G75*
G02*
X113912500Y-67525000I-62500J0D01*
G01*
X113787500Y-67525000D01*
G75*
G02*
X113725000Y-67462500I0J62500D01*
G01*
X113725000Y-66512500D01*
G75*
G02*
X113787500Y-66450000I62500J0D01*
G01*
X113912500Y-66450000D01*
G75*
G02*
X113975000Y-66512500I0J-62500D01*
G01*
G37*
G36*
G01*
X114475000Y-66512500D02*
X114475000Y-67462500D01*
G75*
G02*
X114412500Y-67525000I-62500J0D01*
G01*
X114287500Y-67525000D01*
G75*
G02*
X114225000Y-67462500I0J62500D01*
G01*
X114225000Y-66512500D01*
G75*
G02*
X114287500Y-66450000I62500J0D01*
G01*
X114412500Y-66450000D01*
G75*
G02*
X114475000Y-66512500I0J-62500D01*
G01*
G37*
G36*
G01*
X114975000Y-66512500D02*
X114975000Y-67462500D01*
G75*
G02*
X114912500Y-67525000I-62500J0D01*
G01*
X114787500Y-67525000D01*
G75*
G02*
X114725000Y-67462500I0J62500D01*
G01*
X114725000Y-66512500D01*
G75*
G02*
X114787500Y-66450000I62500J0D01*
G01*
X114912500Y-66450000D01*
G75*
G02*
X114975000Y-66512500I0J-62500D01*
G01*
G37*
D17*
X112350000Y-63650000D03*
%TD*%
%TO.C,R5*%
G36*
G01*
X103800000Y-69975000D02*
X103800000Y-69425000D01*
G75*
G02*
X104000000Y-69225000I200000J0D01*
G01*
X104400000Y-69225000D01*
G75*
G02*
X104600000Y-69425000I0J-200000D01*
G01*
X104600000Y-69975000D01*
G75*
G02*
X104400000Y-70175000I-200000J0D01*
G01*
X104000000Y-70175000D01*
G75*
G02*
X103800000Y-69975000I0J200000D01*
G01*
G37*
G36*
G01*
X102150000Y-69975000D02*
X102150000Y-69425000D01*
G75*
G02*
X102350000Y-69225000I200000J0D01*
G01*
X102750000Y-69225000D01*
G75*
G02*
X102950000Y-69425000I0J-200000D01*
G01*
X102950000Y-69975000D01*
G75*
G02*
X102750000Y-70175000I-200000J0D01*
G01*
X102350000Y-70175000D01*
G75*
G02*
X102150000Y-69975000I0J200000D01*
G01*
G37*
%TD*%
%TO.C,R4*%
G36*
G01*
X103900000Y-72375000D02*
X103900000Y-71825000D01*
G75*
G02*
X104100000Y-71625000I200000J0D01*
G01*
X104500000Y-71625000D01*
G75*
G02*
X104700000Y-71825000I0J-200000D01*
G01*
X104700000Y-72375000D01*
G75*
G02*
X104500000Y-72575000I-200000J0D01*
G01*
X104100000Y-72575000D01*
G75*
G02*
X103900000Y-72375000I0J200000D01*
G01*
G37*
G36*
G01*
X102250000Y-72375000D02*
X102250000Y-71825000D01*
G75*
G02*
X102450000Y-71625000I200000J0D01*
G01*
X102850000Y-71625000D01*
G75*
G02*
X103050000Y-71825000I0J-200000D01*
G01*
X103050000Y-72375000D01*
G75*
G02*
X102850000Y-72575000I-200000J0D01*
G01*
X102450000Y-72575000D01*
G75*
G02*
X102250000Y-72375000I0J200000D01*
G01*
G37*
%TD*%
%TO.C,R3*%
G36*
G01*
X106725000Y-66100000D02*
X107275000Y-66100000D01*
G75*
G02*
X107475000Y-66300000I0J-200000D01*
G01*
X107475000Y-66700000D01*
G75*
G02*
X107275000Y-66900000I-200000J0D01*
G01*
X106725000Y-66900000D01*
G75*
G02*
X106525000Y-66700000I0J200000D01*
G01*
X106525000Y-66300000D01*
G75*
G02*
X106725000Y-66100000I200000J0D01*
G01*
G37*
G36*
G01*
X106725000Y-64450000D02*
X107275000Y-64450000D01*
G75*
G02*
X107475000Y-64650000I0J-200000D01*
G01*
X107475000Y-65050000D01*
G75*
G02*
X107275000Y-65250000I-200000J0D01*
G01*
X106725000Y-65250000D01*
G75*
G02*
X106525000Y-65050000I0J200000D01*
G01*
X106525000Y-64650000D01*
G75*
G02*
X106725000Y-64450000I200000J0D01*
G01*
G37*
%TD*%
%TO.C,R2*%
G36*
G01*
X122325000Y-67575000D02*
X122325000Y-67025000D01*
G75*
G02*
X122525000Y-66825000I200000J0D01*
G01*
X122925000Y-66825000D01*
G75*
G02*
X123125000Y-67025000I0J-200000D01*
G01*
X123125000Y-67575000D01*
G75*
G02*
X122925000Y-67775000I-200000J0D01*
G01*
X122525000Y-67775000D01*
G75*
G02*
X122325000Y-67575000I0J200000D01*
G01*
G37*
G36*
G01*
X120675000Y-67575000D02*
X120675000Y-67025000D01*
G75*
G02*
X120875000Y-66825000I200000J0D01*
G01*
X121275000Y-66825000D01*
G75*
G02*
X121475000Y-67025000I0J-200000D01*
G01*
X121475000Y-67575000D01*
G75*
G02*
X121275000Y-67775000I-200000J0D01*
G01*
X120875000Y-67775000D01*
G75*
G02*
X120675000Y-67575000I0J200000D01*
G01*
G37*
%TD*%
%TO.C,R1*%
G36*
G01*
X122325000Y-66115000D02*
X122325000Y-65565000D01*
G75*
G02*
X122525000Y-65365000I200000J0D01*
G01*
X122925000Y-65365000D01*
G75*
G02*
X123125000Y-65565000I0J-200000D01*
G01*
X123125000Y-66115000D01*
G75*
G02*
X122925000Y-66315000I-200000J0D01*
G01*
X122525000Y-66315000D01*
G75*
G02*
X122325000Y-66115000I0J200000D01*
G01*
G37*
G36*
G01*
X120675000Y-66115000D02*
X120675000Y-65565000D01*
G75*
G02*
X120875000Y-65365000I200000J0D01*
G01*
X121275000Y-65365000D01*
G75*
G02*
X121475000Y-65565000I0J-200000D01*
G01*
X121475000Y-66115000D01*
G75*
G02*
X121275000Y-66315000I-200000J0D01*
G01*
X120875000Y-66315000D01*
G75*
G02*
X120675000Y-66115000I0J200000D01*
G01*
G37*
%TD*%
%TO.C,F1*%
G36*
G01*
X119875000Y-70025000D02*
X119875000Y-68775000D01*
G75*
G02*
X120125000Y-68525000I250000J0D01*
G01*
X120875000Y-68525000D01*
G75*
G02*
X121125000Y-68775000I0J-250000D01*
G01*
X121125000Y-70025000D01*
G75*
G02*
X120875000Y-70275000I-250000J0D01*
G01*
X120125000Y-70275000D01*
G75*
G02*
X119875000Y-70025000I0J250000D01*
G01*
G37*
G36*
G01*
X117075000Y-70025000D02*
X117075000Y-68775000D01*
G75*
G02*
X117325000Y-68525000I250000J0D01*
G01*
X118075000Y-68525000D01*
G75*
G02*
X118325000Y-68775000I0J-250000D01*
G01*
X118325000Y-70025000D01*
G75*
G02*
X118075000Y-70275000I-250000J0D01*
G01*
X117325000Y-70275000D01*
G75*
G02*
X117075000Y-70025000I0J250000D01*
G01*
G37*
%TD*%
%TO.C,C7*%
G36*
G01*
X122455000Y-60950000D02*
X122455000Y-60450000D01*
G75*
G02*
X122680000Y-60225000I225000J0D01*
G01*
X123130000Y-60225000D01*
G75*
G02*
X123355000Y-60450000I0J-225000D01*
G01*
X123355000Y-60950000D01*
G75*
G02*
X123130000Y-61175000I-225000J0D01*
G01*
X122680000Y-61175000D01*
G75*
G02*
X122455000Y-60950000I0J225000D01*
G01*
G37*
G36*
G01*
X120905000Y-60950000D02*
X120905000Y-60450000D01*
G75*
G02*
X121130000Y-60225000I225000J0D01*
G01*
X121580000Y-60225000D01*
G75*
G02*
X121805000Y-60450000I0J-225000D01*
G01*
X121805000Y-60950000D01*
G75*
G02*
X121580000Y-61175000I-225000J0D01*
G01*
X121130000Y-61175000D01*
G75*
G02*
X120905000Y-60950000I0J225000D01*
G01*
G37*
%TD*%
%TO.C,C6*%
G36*
G01*
X122225000Y-63580000D02*
X122225000Y-63080000D01*
G75*
G02*
X122450000Y-62855000I225000J0D01*
G01*
X122900000Y-62855000D01*
G75*
G02*
X123125000Y-63080000I0J-225000D01*
G01*
X123125000Y-63580000D01*
G75*
G02*
X122900000Y-63805000I-225000J0D01*
G01*
X122450000Y-63805000D01*
G75*
G02*
X122225000Y-63580000I0J225000D01*
G01*
G37*
G36*
G01*
X120675000Y-63580000D02*
X120675000Y-63080000D01*
G75*
G02*
X120900000Y-62855000I225000J0D01*
G01*
X121350000Y-62855000D01*
G75*
G02*
X121575000Y-63080000I0J-225000D01*
G01*
X121575000Y-63580000D01*
G75*
G02*
X121350000Y-63805000I-225000J0D01*
G01*
X120900000Y-63805000D01*
G75*
G02*
X120675000Y-63580000I0J225000D01*
G01*
G37*
%TD*%
%TO.C,C5*%
G36*
G01*
X122455000Y-58440000D02*
X122455000Y-57940000D01*
G75*
G02*
X122680000Y-57715000I225000J0D01*
G01*
X123130000Y-57715000D01*
G75*
G02*
X123355000Y-57940000I0J-225000D01*
G01*
X123355000Y-58440000D01*
G75*
G02*
X123130000Y-58665000I-225000J0D01*
G01*
X122680000Y-58665000D01*
G75*
G02*
X122455000Y-58440000I0J225000D01*
G01*
G37*
G36*
G01*
X120905000Y-58440000D02*
X120905000Y-57940000D01*
G75*
G02*
X121130000Y-57715000I225000J0D01*
G01*
X121580000Y-57715000D01*
G75*
G02*
X121805000Y-57940000I0J-225000D01*
G01*
X121805000Y-58440000D01*
G75*
G02*
X121580000Y-58665000I-225000J0D01*
G01*
X121130000Y-58665000D01*
G75*
G02*
X120905000Y-58440000I0J225000D01*
G01*
G37*
%TD*%
%TO.C,C4*%
G36*
G01*
X102725000Y-62050000D02*
X102725000Y-61550000D01*
G75*
G02*
X102950000Y-61325000I225000J0D01*
G01*
X103400000Y-61325000D01*
G75*
G02*
X103625000Y-61550000I0J-225000D01*
G01*
X103625000Y-62050000D01*
G75*
G02*
X103400000Y-62275000I-225000J0D01*
G01*
X102950000Y-62275000D01*
G75*
G02*
X102725000Y-62050000I0J225000D01*
G01*
G37*
G36*
G01*
X101175000Y-62050000D02*
X101175000Y-61550000D01*
G75*
G02*
X101400000Y-61325000I225000J0D01*
G01*
X101850000Y-61325000D01*
G75*
G02*
X102075000Y-61550000I0J-225000D01*
G01*
X102075000Y-62050000D01*
G75*
G02*
X101850000Y-62275000I-225000J0D01*
G01*
X101400000Y-62275000D01*
G75*
G02*
X101175000Y-62050000I0J225000D01*
G01*
G37*
%TD*%
%TO.C,C3*%
G36*
G01*
X107700000Y-52250000D02*
X107700000Y-51750000D01*
G75*
G02*
X107925000Y-51525000I225000J0D01*
G01*
X108375000Y-51525000D01*
G75*
G02*
X108600000Y-51750000I0J-225000D01*
G01*
X108600000Y-52250000D01*
G75*
G02*
X108375000Y-52475000I-225000J0D01*
G01*
X107925000Y-52475000D01*
G75*
G02*
X107700000Y-52250000I0J225000D01*
G01*
G37*
G36*
G01*
X106150000Y-52250000D02*
X106150000Y-51750000D01*
G75*
G02*
X106375000Y-51525000I225000J0D01*
G01*
X106825000Y-51525000D01*
G75*
G02*
X107050000Y-51750000I0J-225000D01*
G01*
X107050000Y-52250000D01*
G75*
G02*
X106825000Y-52475000I-225000J0D01*
G01*
X106375000Y-52475000D01*
G75*
G02*
X106150000Y-52250000I0J225000D01*
G01*
G37*
%TD*%
%TO.C,C2*%
G36*
G01*
X122455000Y-55930000D02*
X122455000Y-55430000D01*
G75*
G02*
X122680000Y-55205000I225000J0D01*
G01*
X123130000Y-55205000D01*
G75*
G02*
X123355000Y-55430000I0J-225000D01*
G01*
X123355000Y-55930000D01*
G75*
G02*
X123130000Y-56155000I-225000J0D01*
G01*
X122680000Y-56155000D01*
G75*
G02*
X122455000Y-55930000I0J225000D01*
G01*
G37*
G36*
G01*
X120905000Y-55930000D02*
X120905000Y-55430000D01*
G75*
G02*
X121130000Y-55205000I225000J0D01*
G01*
X121580000Y-55205000D01*
G75*
G02*
X121805000Y-55430000I0J-225000D01*
G01*
X121805000Y-55930000D01*
G75*
G02*
X121580000Y-56155000I-225000J0D01*
G01*
X121130000Y-56155000D01*
G75*
G02*
X120905000Y-55930000I0J225000D01*
G01*
G37*
%TD*%
%TO.C,C1*%
G36*
G01*
X122450000Y-52650000D02*
X122450000Y-52150000D01*
G75*
G02*
X122675000Y-51925000I225000J0D01*
G01*
X123125000Y-51925000D01*
G75*
G02*
X123350000Y-52150000I0J-225000D01*
G01*
X123350000Y-52650000D01*
G75*
G02*
X123125000Y-52875000I-225000J0D01*
G01*
X122675000Y-52875000D01*
G75*
G02*
X122450000Y-52650000I0J225000D01*
G01*
G37*
G36*
G01*
X120900000Y-52650000D02*
X120900000Y-52150000D01*
G75*
G02*
X121125000Y-51925000I225000J0D01*
G01*
X121575000Y-51925000D01*
G75*
G02*
X121800000Y-52150000I0J-225000D01*
G01*
X121800000Y-52650000D01*
G75*
G02*
X121575000Y-52875000I-225000J0D01*
G01*
X121125000Y-52875000D01*
G75*
G02*
X120900000Y-52650000I0J225000D01*
G01*
G37*
%TD*%
M02*
