M48
; DRILL file {KiCad 5.99.0+really5.1.10+dfsg1-1+b1} date Mon Oct 11 23:19:42 2021
; FORMAT={-:-/ absolute / inch / decimal}
; #@! TF.CreationDate,2021-10-11T23:19:42-07:00
; #@! TF.GenerationSoftware,Kicad,Pcbnew,5.99.0+really5.1.10+dfsg1-1+b1
FMAT,2
INCH
T1C0.0059
T2C0.0157
T3C0.0394
T4C0.0591
%
G90
G05
T1
X4.0945Y-2.5315
X4.1654Y-2.8386
X4.252Y-2.5394
X4.3307Y-2.9134
X4.3346Y-2.8819
X4.3386Y-2.6654
X4.3819Y-2.9213
X4.4252Y-2.8031
X4.4567Y-2.8819
X4.4803Y-2.9213
X4.4843Y-2.6693
X4.5039Y-2.3346
X4.5354Y-2.9094
X4.878Y-2.5
T2
X4.6339Y-2.6063
X4.6929Y-2.8543
X4.6969Y-2.6693
X4.7283Y-2.4291
X4.7746Y-2.8228
X4.8159Y-2.8228
T3
X4.3268Y-2.1575
X4.3268Y-2.7283
X4.4252Y-2.7283
X4.5236Y-2.1575
X4.5236Y-2.7283
X4.6339Y-2.2717
T4
G00X4.2047Y-2.4587
M15
G01X4.2047Y-2.4075
M16
G05
G00X4.6457Y-2.4587
M15
G01X4.6457Y-2.4075
M16
G05
T0
M30
