%TF.GenerationSoftware,KiCad,Pcbnew,5.99.0+really5.1.10+dfsg1-1+b1*%
%TF.CreationDate,2021-10-11T23:19:45-07:00*%
%TF.ProjectId,roPlug,726f506c-7567-42e6-9b69-6361645f7063,rev?*%
%TF.SameCoordinates,Original*%
%TF.FileFunction,Copper,L1,Top*%
%TF.FilePolarity,Positive*%
%FSLAX46Y46*%
G04 Gerber Fmt 4.6, Leading zero omitted, Abs format (unit mm)*
G04 Created by KiCad (PCBNEW 5.99.0+really5.1.10+dfsg1-1+b1) date 2021-10-11 23:19:45*
%MOMM*%
%LPD*%
G01*
G04 APERTURE LIST*
%TA.AperFunction,SMDPad,CuDef*%
%ADD10R,1.200000X1.800000*%
%TD*%
%TA.AperFunction,ComponentPad*%
%ADD11R,1.700000X1.700000*%
%TD*%
%TA.AperFunction,SMDPad,CuDef*%
%ADD12R,0.380000X1.000000*%
%TD*%
%TA.AperFunction,SMDPad,CuDef*%
%ADD13R,0.700000X1.150000*%
%TD*%
%TA.AperFunction,ComponentPad*%
%ADD14C,2.000000*%
%TD*%
%TA.AperFunction,ComponentPad*%
%ADD15R,2.000000X3.200000*%
%TD*%
%TA.AperFunction,ComponentPad*%
%ADD16R,2.000000X2.000000*%
%TD*%
%TA.AperFunction,SMDPad,CuDef*%
%ADD17R,5.200000X5.200000*%
%TD*%
%TA.AperFunction,ViaPad*%
%ADD18C,0.200000*%
%TD*%
%TA.AperFunction,ViaPad*%
%ADD19C,0.800000*%
%TD*%
%TA.AperFunction,Conductor*%
%ADD20C,0.250000*%
%TD*%
%TA.AperFunction,Conductor*%
%ADD21C,0.200000*%
%TD*%
%TA.AperFunction,Conductor*%
%ADD22C,0.254000*%
%TD*%
%TA.AperFunction,Conductor*%
%ADD23C,0.100000*%
%TD*%
G04 APERTURE END LIST*
D10*
%TO.P,Y1,4*%
%TO.N,GND*%
X102200000Y-56600000D03*
%TO.P,Y1,3*%
%TO.N,Net-(C4-Pad1)*%
X102200000Y-52600000D03*
%TO.P,Y1,2*%
%TO.N,GND*%
X104600000Y-52600000D03*
%TO.P,Y1,1*%
%TO.N,Net-(C3-Pad1)*%
X104600000Y-56600000D03*
%TD*%
D11*
%TO.P,RST1,1*%
%TO.N,Net-(RST1-Pad1)*%
X117700000Y-57700000D03*
%TD*%
D12*
%TO.P,P1,A1*%
%TO.N,GND*%
X115250000Y-74960000D03*
%TO.P,P1,A2*%
%TO.N,N/C*%
X114750000Y-74960000D03*
%TO.P,P1,A3*%
X114250000Y-74960000D03*
%TO.P,P1,A4*%
%TO.N,Net-(F1-Pad2)*%
X113750000Y-74960000D03*
%TO.P,P1,A5*%
%TO.N,Net-(P1-PadA5)*%
X113250000Y-74960000D03*
%TO.P,P1,A6*%
%TO.N,D+*%
X112750000Y-74960000D03*
%TO.P,P1,A7*%
%TO.N,D-*%
X112250000Y-74960000D03*
%TO.P,P1,A8*%
%TO.N,N/C*%
X111750000Y-74960000D03*
%TO.P,P1,A9*%
%TO.N,Net-(F1-Pad2)*%
X111250000Y-74960000D03*
%TO.P,P1,A10*%
%TO.N,N/C*%
X110750000Y-74960000D03*
%TO.P,P1,A11*%
X110250000Y-74960000D03*
%TO.P,P1,A12*%
%TO.N,GND*%
X109750000Y-74960000D03*
D13*
%TO.P,P1,S1*%
%TO.N,Net-(P1-PadS1)*%
X115920000Y-74120000D03*
%TD*%
D14*
%TO.P,SW1,S1*%
%TO.N,Net-(SW1-PadS1)*%
X114900000Y-54800000D03*
%TO.P,SW1,S2*%
%TO.N,GND*%
X109900000Y-54800000D03*
D15*
%TO.P,SW1,MP*%
%TO.N,N/C*%
X118000000Y-61800000D03*
X106800000Y-61800000D03*
D14*
%TO.P,SW1,B*%
%TO.N,Net-(SW1-PadB)*%
X114900000Y-69300000D03*
%TO.P,SW1,C*%
%TO.N,GND*%
X112400000Y-69300000D03*
D16*
%TO.P,SW1,A*%
%TO.N,Net-(SW1-PadA)*%
X109900000Y-69300000D03*
%TD*%
%TO.P,U1,1*%
%TO.N,N/C*%
%TA.AperFunction,SMDPad,CuDef*%
G36*
G01*
X116225000Y-66087500D02*
X116225000Y-66212500D01*
G75*
G02*
X116162500Y-66275000I-62500J0D01*
G01*
X115212500Y-66275000D01*
G75*
G02*
X115150000Y-66212500I0J62500D01*
G01*
X115150000Y-66087500D01*
G75*
G02*
X115212500Y-66025000I62500J0D01*
G01*
X116162500Y-66025000D01*
G75*
G02*
X116225000Y-66087500I0J-62500D01*
G01*
G37*
%TD.AperFunction*%
%TO.P,U1,2*%
%TO.N,+5V*%
%TA.AperFunction,SMDPad,CuDef*%
G36*
G01*
X116225000Y-65587500D02*
X116225000Y-65712500D01*
G75*
G02*
X116162500Y-65775000I-62500J0D01*
G01*
X115212500Y-65775000D01*
G75*
G02*
X115150000Y-65712500I0J62500D01*
G01*
X115150000Y-65587500D01*
G75*
G02*
X115212500Y-65525000I62500J0D01*
G01*
X116162500Y-65525000D01*
G75*
G02*
X116225000Y-65587500I0J-62500D01*
G01*
G37*
%TD.AperFunction*%
%TO.P,U1,3*%
%TO.N,D-*%
%TA.AperFunction,SMDPad,CuDef*%
G36*
G01*
X116225000Y-65087500D02*
X116225000Y-65212500D01*
G75*
G02*
X116162500Y-65275000I-62500J0D01*
G01*
X115212500Y-65275000D01*
G75*
G02*
X115150000Y-65212500I0J62500D01*
G01*
X115150000Y-65087500D01*
G75*
G02*
X115212500Y-65025000I62500J0D01*
G01*
X116162500Y-65025000D01*
G75*
G02*
X116225000Y-65087500I0J-62500D01*
G01*
G37*
%TD.AperFunction*%
%TO.P,U1,4*%
%TO.N,D+*%
%TA.AperFunction,SMDPad,CuDef*%
G36*
G01*
X116225000Y-64587500D02*
X116225000Y-64712500D01*
G75*
G02*
X116162500Y-64775000I-62500J0D01*
G01*
X115212500Y-64775000D01*
G75*
G02*
X115150000Y-64712500I0J62500D01*
G01*
X115150000Y-64587500D01*
G75*
G02*
X115212500Y-64525000I62500J0D01*
G01*
X116162500Y-64525000D01*
G75*
G02*
X116225000Y-64587500I0J-62500D01*
G01*
G37*
%TD.AperFunction*%
%TO.P,U1,5*%
%TO.N,GND*%
%TA.AperFunction,SMDPad,CuDef*%
G36*
G01*
X116225000Y-64087500D02*
X116225000Y-64212500D01*
G75*
G02*
X116162500Y-64275000I-62500J0D01*
G01*
X115212500Y-64275000D01*
G75*
G02*
X115150000Y-64212500I0J62500D01*
G01*
X115150000Y-64087500D01*
G75*
G02*
X115212500Y-64025000I62500J0D01*
G01*
X116162500Y-64025000D01*
G75*
G02*
X116225000Y-64087500I0J-62500D01*
G01*
G37*
%TD.AperFunction*%
%TO.P,U1,6*%
%TO.N,Net-(C6-Pad1)*%
%TA.AperFunction,SMDPad,CuDef*%
G36*
G01*
X116225000Y-63587500D02*
X116225000Y-63712500D01*
G75*
G02*
X116162500Y-63775000I-62500J0D01*
G01*
X115212500Y-63775000D01*
G75*
G02*
X115150000Y-63712500I0J62500D01*
G01*
X115150000Y-63587500D01*
G75*
G02*
X115212500Y-63525000I62500J0D01*
G01*
X116162500Y-63525000D01*
G75*
G02*
X116225000Y-63587500I0J-62500D01*
G01*
G37*
%TD.AperFunction*%
%TO.P,U1,7*%
%TO.N,+5V*%
%TA.AperFunction,SMDPad,CuDef*%
G36*
G01*
X116225000Y-63087500D02*
X116225000Y-63212500D01*
G75*
G02*
X116162500Y-63275000I-62500J0D01*
G01*
X115212500Y-63275000D01*
G75*
G02*
X115150000Y-63212500I0J62500D01*
G01*
X115150000Y-63087500D01*
G75*
G02*
X115212500Y-63025000I62500J0D01*
G01*
X116162500Y-63025000D01*
G75*
G02*
X116225000Y-63087500I0J-62500D01*
G01*
G37*
%TD.AperFunction*%
%TO.P,U1,8*%
%TO.N,N/C*%
%TA.AperFunction,SMDPad,CuDef*%
G36*
G01*
X116225000Y-62587500D02*
X116225000Y-62712500D01*
G75*
G02*
X116162500Y-62775000I-62500J0D01*
G01*
X115212500Y-62775000D01*
G75*
G02*
X115150000Y-62712500I0J62500D01*
G01*
X115150000Y-62587500D01*
G75*
G02*
X115212500Y-62525000I62500J0D01*
G01*
X116162500Y-62525000D01*
G75*
G02*
X116225000Y-62587500I0J-62500D01*
G01*
G37*
%TD.AperFunction*%
%TO.P,U1,9*%
%TA.AperFunction,SMDPad,CuDef*%
G36*
G01*
X116225000Y-62087500D02*
X116225000Y-62212500D01*
G75*
G02*
X116162500Y-62275000I-62500J0D01*
G01*
X115212500Y-62275000D01*
G75*
G02*
X115150000Y-62212500I0J62500D01*
G01*
X115150000Y-62087500D01*
G75*
G02*
X115212500Y-62025000I62500J0D01*
G01*
X116162500Y-62025000D01*
G75*
G02*
X116225000Y-62087500I0J-62500D01*
G01*
G37*
%TD.AperFunction*%
%TO.P,U1,10*%
%TA.AperFunction,SMDPad,CuDef*%
G36*
G01*
X116225000Y-61587500D02*
X116225000Y-61712500D01*
G75*
G02*
X116162500Y-61775000I-62500J0D01*
G01*
X115212500Y-61775000D01*
G75*
G02*
X115150000Y-61712500I0J62500D01*
G01*
X115150000Y-61587500D01*
G75*
G02*
X115212500Y-61525000I62500J0D01*
G01*
X116162500Y-61525000D01*
G75*
G02*
X116225000Y-61587500I0J-62500D01*
G01*
G37*
%TD.AperFunction*%
%TO.P,U1,11*%
%TA.AperFunction,SMDPad,CuDef*%
G36*
G01*
X116225000Y-61087500D02*
X116225000Y-61212500D01*
G75*
G02*
X116162500Y-61275000I-62500J0D01*
G01*
X115212500Y-61275000D01*
G75*
G02*
X115150000Y-61212500I0J62500D01*
G01*
X115150000Y-61087500D01*
G75*
G02*
X115212500Y-61025000I62500J0D01*
G01*
X116162500Y-61025000D01*
G75*
G02*
X116225000Y-61087500I0J-62500D01*
G01*
G37*
%TD.AperFunction*%
%TO.P,U1,12*%
%TO.N,Net-(SW1-PadS1)*%
%TA.AperFunction,SMDPad,CuDef*%
G36*
G01*
X114975000Y-59837500D02*
X114975000Y-60787500D01*
G75*
G02*
X114912500Y-60850000I-62500J0D01*
G01*
X114787500Y-60850000D01*
G75*
G02*
X114725000Y-60787500I0J62500D01*
G01*
X114725000Y-59837500D01*
G75*
G02*
X114787500Y-59775000I62500J0D01*
G01*
X114912500Y-59775000D01*
G75*
G02*
X114975000Y-59837500I0J-62500D01*
G01*
G37*
%TD.AperFunction*%
%TO.P,U1,13*%
%TO.N,Net-(RST1-Pad1)*%
%TA.AperFunction,SMDPad,CuDef*%
G36*
G01*
X114475000Y-59837500D02*
X114475000Y-60787500D01*
G75*
G02*
X114412500Y-60850000I-62500J0D01*
G01*
X114287500Y-60850000D01*
G75*
G02*
X114225000Y-60787500I0J62500D01*
G01*
X114225000Y-59837500D01*
G75*
G02*
X114287500Y-59775000I62500J0D01*
G01*
X114412500Y-59775000D01*
G75*
G02*
X114475000Y-59837500I0J-62500D01*
G01*
G37*
%TD.AperFunction*%
%TO.P,U1,14*%
%TO.N,+5V*%
%TA.AperFunction,SMDPad,CuDef*%
G36*
G01*
X113975000Y-59837500D02*
X113975000Y-60787500D01*
G75*
G02*
X113912500Y-60850000I-62500J0D01*
G01*
X113787500Y-60850000D01*
G75*
G02*
X113725000Y-60787500I0J62500D01*
G01*
X113725000Y-59837500D01*
G75*
G02*
X113787500Y-59775000I62500J0D01*
G01*
X113912500Y-59775000D01*
G75*
G02*
X113975000Y-59837500I0J-62500D01*
G01*
G37*
%TD.AperFunction*%
%TO.P,U1,15*%
%TO.N,GND*%
%TA.AperFunction,SMDPad,CuDef*%
G36*
G01*
X113475000Y-59837500D02*
X113475000Y-60787500D01*
G75*
G02*
X113412500Y-60850000I-62500J0D01*
G01*
X113287500Y-60850000D01*
G75*
G02*
X113225000Y-60787500I0J62500D01*
G01*
X113225000Y-59837500D01*
G75*
G02*
X113287500Y-59775000I62500J0D01*
G01*
X113412500Y-59775000D01*
G75*
G02*
X113475000Y-59837500I0J-62500D01*
G01*
G37*
%TD.AperFunction*%
%TO.P,U1,16*%
%TO.N,Net-(C4-Pad1)*%
%TA.AperFunction,SMDPad,CuDef*%
G36*
G01*
X112975000Y-59837500D02*
X112975000Y-60787500D01*
G75*
G02*
X112912500Y-60850000I-62500J0D01*
G01*
X112787500Y-60850000D01*
G75*
G02*
X112725000Y-60787500I0J62500D01*
G01*
X112725000Y-59837500D01*
G75*
G02*
X112787500Y-59775000I62500J0D01*
G01*
X112912500Y-59775000D01*
G75*
G02*
X112975000Y-59837500I0J-62500D01*
G01*
G37*
%TD.AperFunction*%
%TO.P,U1,17*%
%TO.N,Net-(C3-Pad1)*%
%TA.AperFunction,SMDPad,CuDef*%
G36*
G01*
X112475000Y-59837500D02*
X112475000Y-60787500D01*
G75*
G02*
X112412500Y-60850000I-62500J0D01*
G01*
X112287500Y-60850000D01*
G75*
G02*
X112225000Y-60787500I0J62500D01*
G01*
X112225000Y-59837500D01*
G75*
G02*
X112287500Y-59775000I62500J0D01*
G01*
X112412500Y-59775000D01*
G75*
G02*
X112475000Y-59837500I0J-62500D01*
G01*
G37*
%TD.AperFunction*%
%TO.P,U1,18*%
%TO.N,N/C*%
%TA.AperFunction,SMDPad,CuDef*%
G36*
G01*
X111975000Y-59837500D02*
X111975000Y-60787500D01*
G75*
G02*
X111912500Y-60850000I-62500J0D01*
G01*
X111787500Y-60850000D01*
G75*
G02*
X111725000Y-60787500I0J62500D01*
G01*
X111725000Y-59837500D01*
G75*
G02*
X111787500Y-59775000I62500J0D01*
G01*
X111912500Y-59775000D01*
G75*
G02*
X111975000Y-59837500I0J-62500D01*
G01*
G37*
%TD.AperFunction*%
%TO.P,U1,19*%
%TA.AperFunction,SMDPad,CuDef*%
G36*
G01*
X111475000Y-59837500D02*
X111475000Y-60787500D01*
G75*
G02*
X111412500Y-60850000I-62500J0D01*
G01*
X111287500Y-60850000D01*
G75*
G02*
X111225000Y-60787500I0J62500D01*
G01*
X111225000Y-59837500D01*
G75*
G02*
X111287500Y-59775000I62500J0D01*
G01*
X111412500Y-59775000D01*
G75*
G02*
X111475000Y-59837500I0J-62500D01*
G01*
G37*
%TD.AperFunction*%
%TO.P,U1,20*%
%TA.AperFunction,SMDPad,CuDef*%
G36*
G01*
X110975000Y-59837500D02*
X110975000Y-60787500D01*
G75*
G02*
X110912500Y-60850000I-62500J0D01*
G01*
X110787500Y-60850000D01*
G75*
G02*
X110725000Y-60787500I0J62500D01*
G01*
X110725000Y-59837500D01*
G75*
G02*
X110787500Y-59775000I62500J0D01*
G01*
X110912500Y-59775000D01*
G75*
G02*
X110975000Y-59837500I0J-62500D01*
G01*
G37*
%TD.AperFunction*%
%TO.P,U1,21*%
%TA.AperFunction,SMDPad,CuDef*%
G36*
G01*
X110475000Y-59837500D02*
X110475000Y-60787500D01*
G75*
G02*
X110412500Y-60850000I-62500J0D01*
G01*
X110287500Y-60850000D01*
G75*
G02*
X110225000Y-60787500I0J62500D01*
G01*
X110225000Y-59837500D01*
G75*
G02*
X110287500Y-59775000I62500J0D01*
G01*
X110412500Y-59775000D01*
G75*
G02*
X110475000Y-59837500I0J-62500D01*
G01*
G37*
%TD.AperFunction*%
%TO.P,U1,22*%
%TA.AperFunction,SMDPad,CuDef*%
G36*
G01*
X109975000Y-59837500D02*
X109975000Y-60787500D01*
G75*
G02*
X109912500Y-60850000I-62500J0D01*
G01*
X109787500Y-60850000D01*
G75*
G02*
X109725000Y-60787500I0J62500D01*
G01*
X109725000Y-59837500D01*
G75*
G02*
X109787500Y-59775000I62500J0D01*
G01*
X109912500Y-59775000D01*
G75*
G02*
X109975000Y-59837500I0J-62500D01*
G01*
G37*
%TD.AperFunction*%
%TO.P,U1,23*%
%TO.N,GND*%
%TA.AperFunction,SMDPad,CuDef*%
G36*
G01*
X109550000Y-61087500D02*
X109550000Y-61212500D01*
G75*
G02*
X109487500Y-61275000I-62500J0D01*
G01*
X108537500Y-61275000D01*
G75*
G02*
X108475000Y-61212500I0J62500D01*
G01*
X108475000Y-61087500D01*
G75*
G02*
X108537500Y-61025000I62500J0D01*
G01*
X109487500Y-61025000D01*
G75*
G02*
X109550000Y-61087500I0J-62500D01*
G01*
G37*
%TD.AperFunction*%
%TO.P,U1,24*%
%TO.N,+5V*%
%TA.AperFunction,SMDPad,CuDef*%
G36*
G01*
X109550000Y-61587500D02*
X109550000Y-61712500D01*
G75*
G02*
X109487500Y-61775000I-62500J0D01*
G01*
X108537500Y-61775000D01*
G75*
G02*
X108475000Y-61712500I0J62500D01*
G01*
X108475000Y-61587500D01*
G75*
G02*
X108537500Y-61525000I62500J0D01*
G01*
X109487500Y-61525000D01*
G75*
G02*
X109550000Y-61587500I0J-62500D01*
G01*
G37*
%TD.AperFunction*%
%TO.P,U1,25*%
%TO.N,N/C*%
%TA.AperFunction,SMDPad,CuDef*%
G36*
G01*
X109550000Y-62087500D02*
X109550000Y-62212500D01*
G75*
G02*
X109487500Y-62275000I-62500J0D01*
G01*
X108537500Y-62275000D01*
G75*
G02*
X108475000Y-62212500I0J62500D01*
G01*
X108475000Y-62087500D01*
G75*
G02*
X108537500Y-62025000I62500J0D01*
G01*
X109487500Y-62025000D01*
G75*
G02*
X109550000Y-62087500I0J-62500D01*
G01*
G37*
%TD.AperFunction*%
%TO.P,U1,26*%
%TA.AperFunction,SMDPad,CuDef*%
G36*
G01*
X109550000Y-62587500D02*
X109550000Y-62712500D01*
G75*
G02*
X109487500Y-62775000I-62500J0D01*
G01*
X108537500Y-62775000D01*
G75*
G02*
X108475000Y-62712500I0J62500D01*
G01*
X108475000Y-62587500D01*
G75*
G02*
X108537500Y-62525000I62500J0D01*
G01*
X109487500Y-62525000D01*
G75*
G02*
X109550000Y-62587500I0J-62500D01*
G01*
G37*
%TD.AperFunction*%
%TO.P,U1,27*%
%TA.AperFunction,SMDPad,CuDef*%
G36*
G01*
X109550000Y-63087500D02*
X109550000Y-63212500D01*
G75*
G02*
X109487500Y-63275000I-62500J0D01*
G01*
X108537500Y-63275000D01*
G75*
G02*
X108475000Y-63212500I0J62500D01*
G01*
X108475000Y-63087500D01*
G75*
G02*
X108537500Y-63025000I62500J0D01*
G01*
X109487500Y-63025000D01*
G75*
G02*
X109550000Y-63087500I0J-62500D01*
G01*
G37*
%TD.AperFunction*%
%TO.P,U1,28*%
%TA.AperFunction,SMDPad,CuDef*%
G36*
G01*
X109550000Y-63587500D02*
X109550000Y-63712500D01*
G75*
G02*
X109487500Y-63775000I-62500J0D01*
G01*
X108537500Y-63775000D01*
G75*
G02*
X108475000Y-63712500I0J62500D01*
G01*
X108475000Y-63587500D01*
G75*
G02*
X108537500Y-63525000I62500J0D01*
G01*
X109487500Y-63525000D01*
G75*
G02*
X109550000Y-63587500I0J-62500D01*
G01*
G37*
%TD.AperFunction*%
%TO.P,U1,29*%
%TA.AperFunction,SMDPad,CuDef*%
G36*
G01*
X109550000Y-64087500D02*
X109550000Y-64212500D01*
G75*
G02*
X109487500Y-64275000I-62500J0D01*
G01*
X108537500Y-64275000D01*
G75*
G02*
X108475000Y-64212500I0J62500D01*
G01*
X108475000Y-64087500D01*
G75*
G02*
X108537500Y-64025000I62500J0D01*
G01*
X109487500Y-64025000D01*
G75*
G02*
X109550000Y-64087500I0J-62500D01*
G01*
G37*
%TD.AperFunction*%
%TO.P,U1,30*%
%TA.AperFunction,SMDPad,CuDef*%
G36*
G01*
X109550000Y-64587500D02*
X109550000Y-64712500D01*
G75*
G02*
X109487500Y-64775000I-62500J0D01*
G01*
X108537500Y-64775000D01*
G75*
G02*
X108475000Y-64712500I0J62500D01*
G01*
X108475000Y-64587500D01*
G75*
G02*
X108537500Y-64525000I62500J0D01*
G01*
X109487500Y-64525000D01*
G75*
G02*
X109550000Y-64587500I0J-62500D01*
G01*
G37*
%TD.AperFunction*%
%TO.P,U1,31*%
%TA.AperFunction,SMDPad,CuDef*%
G36*
G01*
X109550000Y-65087500D02*
X109550000Y-65212500D01*
G75*
G02*
X109487500Y-65275000I-62500J0D01*
G01*
X108537500Y-65275000D01*
G75*
G02*
X108475000Y-65212500I0J62500D01*
G01*
X108475000Y-65087500D01*
G75*
G02*
X108537500Y-65025000I62500J0D01*
G01*
X109487500Y-65025000D01*
G75*
G02*
X109550000Y-65087500I0J-62500D01*
G01*
G37*
%TD.AperFunction*%
%TO.P,U1,32*%
%TA.AperFunction,SMDPad,CuDef*%
G36*
G01*
X109550000Y-65587500D02*
X109550000Y-65712500D01*
G75*
G02*
X109487500Y-65775000I-62500J0D01*
G01*
X108537500Y-65775000D01*
G75*
G02*
X108475000Y-65712500I0J62500D01*
G01*
X108475000Y-65587500D01*
G75*
G02*
X108537500Y-65525000I62500J0D01*
G01*
X109487500Y-65525000D01*
G75*
G02*
X109550000Y-65587500I0J-62500D01*
G01*
G37*
%TD.AperFunction*%
%TO.P,U1,33*%
%TO.N,Net-(R3-Pad2)*%
%TA.AperFunction,SMDPad,CuDef*%
G36*
G01*
X109550000Y-66087500D02*
X109550000Y-66212500D01*
G75*
G02*
X109487500Y-66275000I-62500J0D01*
G01*
X108537500Y-66275000D01*
G75*
G02*
X108475000Y-66212500I0J62500D01*
G01*
X108475000Y-66087500D01*
G75*
G02*
X108537500Y-66025000I62500J0D01*
G01*
X109487500Y-66025000D01*
G75*
G02*
X109550000Y-66087500I0J-62500D01*
G01*
G37*
%TD.AperFunction*%
%TO.P,U1,34*%
%TO.N,+5V*%
%TA.AperFunction,SMDPad,CuDef*%
G36*
G01*
X109975000Y-66512500D02*
X109975000Y-67462500D01*
G75*
G02*
X109912500Y-67525000I-62500J0D01*
G01*
X109787500Y-67525000D01*
G75*
G02*
X109725000Y-67462500I0J62500D01*
G01*
X109725000Y-66512500D01*
G75*
G02*
X109787500Y-66450000I62500J0D01*
G01*
X109912500Y-66450000D01*
G75*
G02*
X109975000Y-66512500I0J-62500D01*
G01*
G37*
%TD.AperFunction*%
%TO.P,U1,35*%
%TO.N,GND*%
%TA.AperFunction,SMDPad,CuDef*%
G36*
G01*
X110475000Y-66512500D02*
X110475000Y-67462500D01*
G75*
G02*
X110412500Y-67525000I-62500J0D01*
G01*
X110287500Y-67525000D01*
G75*
G02*
X110225000Y-67462500I0J62500D01*
G01*
X110225000Y-66512500D01*
G75*
G02*
X110287500Y-66450000I62500J0D01*
G01*
X110412500Y-66450000D01*
G75*
G02*
X110475000Y-66512500I0J-62500D01*
G01*
G37*
%TD.AperFunction*%
%TO.P,U1,36*%
%TO.N,N/C*%
%TA.AperFunction,SMDPad,CuDef*%
G36*
G01*
X110975000Y-66512500D02*
X110975000Y-67462500D01*
G75*
G02*
X110912500Y-67525000I-62500J0D01*
G01*
X110787500Y-67525000D01*
G75*
G02*
X110725000Y-67462500I0J62500D01*
G01*
X110725000Y-66512500D01*
G75*
G02*
X110787500Y-66450000I62500J0D01*
G01*
X110912500Y-66450000D01*
G75*
G02*
X110975000Y-66512500I0J-62500D01*
G01*
G37*
%TD.AperFunction*%
%TO.P,U1,37*%
%TO.N,Net-(SW1-PadA)*%
%TA.AperFunction,SMDPad,CuDef*%
G36*
G01*
X111475000Y-66512500D02*
X111475000Y-67462500D01*
G75*
G02*
X111412500Y-67525000I-62500J0D01*
G01*
X111287500Y-67525000D01*
G75*
G02*
X111225000Y-67462500I0J62500D01*
G01*
X111225000Y-66512500D01*
G75*
G02*
X111287500Y-66450000I62500J0D01*
G01*
X111412500Y-66450000D01*
G75*
G02*
X111475000Y-66512500I0J-62500D01*
G01*
G37*
%TD.AperFunction*%
%TO.P,U1,38*%
%TO.N,Net-(SW1-PadB)*%
%TA.AperFunction,SMDPad,CuDef*%
G36*
G01*
X111975000Y-66512500D02*
X111975000Y-67462500D01*
G75*
G02*
X111912500Y-67525000I-62500J0D01*
G01*
X111787500Y-67525000D01*
G75*
G02*
X111725000Y-67462500I0J62500D01*
G01*
X111725000Y-66512500D01*
G75*
G02*
X111787500Y-66450000I62500J0D01*
G01*
X111912500Y-66450000D01*
G75*
G02*
X111975000Y-66512500I0J-62500D01*
G01*
G37*
%TD.AperFunction*%
%TO.P,U1,39*%
%TO.N,N/C*%
%TA.AperFunction,SMDPad,CuDef*%
G36*
G01*
X112475000Y-66512500D02*
X112475000Y-67462500D01*
G75*
G02*
X112412500Y-67525000I-62500J0D01*
G01*
X112287500Y-67525000D01*
G75*
G02*
X112225000Y-67462500I0J62500D01*
G01*
X112225000Y-66512500D01*
G75*
G02*
X112287500Y-66450000I62500J0D01*
G01*
X112412500Y-66450000D01*
G75*
G02*
X112475000Y-66512500I0J-62500D01*
G01*
G37*
%TD.AperFunction*%
%TO.P,U1,40*%
%TA.AperFunction,SMDPad,CuDef*%
G36*
G01*
X112975000Y-66512500D02*
X112975000Y-67462500D01*
G75*
G02*
X112912500Y-67525000I-62500J0D01*
G01*
X112787500Y-67525000D01*
G75*
G02*
X112725000Y-67462500I0J62500D01*
G01*
X112725000Y-66512500D01*
G75*
G02*
X112787500Y-66450000I62500J0D01*
G01*
X112912500Y-66450000D01*
G75*
G02*
X112975000Y-66512500I0J-62500D01*
G01*
G37*
%TD.AperFunction*%
%TO.P,U1,41*%
%TA.AperFunction,SMDPad,CuDef*%
G36*
G01*
X113475000Y-66512500D02*
X113475000Y-67462500D01*
G75*
G02*
X113412500Y-67525000I-62500J0D01*
G01*
X113287500Y-67525000D01*
G75*
G02*
X113225000Y-67462500I0J62500D01*
G01*
X113225000Y-66512500D01*
G75*
G02*
X113287500Y-66450000I62500J0D01*
G01*
X113412500Y-66450000D01*
G75*
G02*
X113475000Y-66512500I0J-62500D01*
G01*
G37*
%TD.AperFunction*%
%TO.P,U1,42*%
%TA.AperFunction,SMDPad,CuDef*%
G36*
G01*
X113975000Y-66512500D02*
X113975000Y-67462500D01*
G75*
G02*
X113912500Y-67525000I-62500J0D01*
G01*
X113787500Y-67525000D01*
G75*
G02*
X113725000Y-67462500I0J62500D01*
G01*
X113725000Y-66512500D01*
G75*
G02*
X113787500Y-66450000I62500J0D01*
G01*
X113912500Y-66450000D01*
G75*
G02*
X113975000Y-66512500I0J-62500D01*
G01*
G37*
%TD.AperFunction*%
%TO.P,U1,43*%
%TO.N,GND*%
%TA.AperFunction,SMDPad,CuDef*%
G36*
G01*
X114475000Y-66512500D02*
X114475000Y-67462500D01*
G75*
G02*
X114412500Y-67525000I-62500J0D01*
G01*
X114287500Y-67525000D01*
G75*
G02*
X114225000Y-67462500I0J62500D01*
G01*
X114225000Y-66512500D01*
G75*
G02*
X114287500Y-66450000I62500J0D01*
G01*
X114412500Y-66450000D01*
G75*
G02*
X114475000Y-66512500I0J-62500D01*
G01*
G37*
%TD.AperFunction*%
%TO.P,U1,44*%
%TO.N,+5V*%
%TA.AperFunction,SMDPad,CuDef*%
G36*
G01*
X114975000Y-66512500D02*
X114975000Y-67462500D01*
G75*
G02*
X114912500Y-67525000I-62500J0D01*
G01*
X114787500Y-67525000D01*
G75*
G02*
X114725000Y-67462500I0J62500D01*
G01*
X114725000Y-66512500D01*
G75*
G02*
X114787500Y-66450000I62500J0D01*
G01*
X114912500Y-66450000D01*
G75*
G02*
X114975000Y-66512500I0J-62500D01*
G01*
G37*
%TD.AperFunction*%
D17*
%TO.P,U1,45*%
%TO.N,GND*%
X112350000Y-63650000D03*
%TD*%
%TO.P,R5,2*%
%TO.N,Net-(P1-PadB5)*%
%TA.AperFunction,SMDPad,CuDef*%
G36*
G01*
X103800000Y-69975000D02*
X103800000Y-69425000D01*
G75*
G02*
X104000000Y-69225000I200000J0D01*
G01*
X104400000Y-69225000D01*
G75*
G02*
X104600000Y-69425000I0J-200000D01*
G01*
X104600000Y-69975000D01*
G75*
G02*
X104400000Y-70175000I-200000J0D01*
G01*
X104000000Y-70175000D01*
G75*
G02*
X103800000Y-69975000I0J200000D01*
G01*
G37*
%TD.AperFunction*%
%TO.P,R5,1*%
%TO.N,GND*%
%TA.AperFunction,SMDPad,CuDef*%
G36*
G01*
X102150000Y-69975000D02*
X102150000Y-69425000D01*
G75*
G02*
X102350000Y-69225000I200000J0D01*
G01*
X102750000Y-69225000D01*
G75*
G02*
X102950000Y-69425000I0J-200000D01*
G01*
X102950000Y-69975000D01*
G75*
G02*
X102750000Y-70175000I-200000J0D01*
G01*
X102350000Y-70175000D01*
G75*
G02*
X102150000Y-69975000I0J200000D01*
G01*
G37*
%TD.AperFunction*%
%TD*%
%TO.P,R4,2*%
%TO.N,Net-(P1-PadA5)*%
%TA.AperFunction,SMDPad,CuDef*%
G36*
G01*
X103900000Y-72375000D02*
X103900000Y-71825000D01*
G75*
G02*
X104100000Y-71625000I200000J0D01*
G01*
X104500000Y-71625000D01*
G75*
G02*
X104700000Y-71825000I0J-200000D01*
G01*
X104700000Y-72375000D01*
G75*
G02*
X104500000Y-72575000I-200000J0D01*
G01*
X104100000Y-72575000D01*
G75*
G02*
X103900000Y-72375000I0J200000D01*
G01*
G37*
%TD.AperFunction*%
%TO.P,R4,1*%
%TO.N,GND*%
%TA.AperFunction,SMDPad,CuDef*%
G36*
G01*
X102250000Y-72375000D02*
X102250000Y-71825000D01*
G75*
G02*
X102450000Y-71625000I200000J0D01*
G01*
X102850000Y-71625000D01*
G75*
G02*
X103050000Y-71825000I0J-200000D01*
G01*
X103050000Y-72375000D01*
G75*
G02*
X102850000Y-72575000I-200000J0D01*
G01*
X102450000Y-72575000D01*
G75*
G02*
X102250000Y-72375000I0J200000D01*
G01*
G37*
%TD.AperFunction*%
%TD*%
%TO.P,R3,2*%
%TO.N,Net-(R3-Pad2)*%
%TA.AperFunction,SMDPad,CuDef*%
G36*
G01*
X106725000Y-66100000D02*
X107275000Y-66100000D01*
G75*
G02*
X107475000Y-66300000I0J-200000D01*
G01*
X107475000Y-66700000D01*
G75*
G02*
X107275000Y-66900000I-200000J0D01*
G01*
X106725000Y-66900000D01*
G75*
G02*
X106525000Y-66700000I0J200000D01*
G01*
X106525000Y-66300000D01*
G75*
G02*
X106725000Y-66100000I200000J0D01*
G01*
G37*
%TD.AperFunction*%
%TO.P,R3,1*%
%TO.N,GND*%
%TA.AperFunction,SMDPad,CuDef*%
G36*
G01*
X106725000Y-64450000D02*
X107275000Y-64450000D01*
G75*
G02*
X107475000Y-64650000I0J-200000D01*
G01*
X107475000Y-65050000D01*
G75*
G02*
X107275000Y-65250000I-200000J0D01*
G01*
X106725000Y-65250000D01*
G75*
G02*
X106525000Y-65050000I0J200000D01*
G01*
X106525000Y-64650000D01*
G75*
G02*
X106725000Y-64450000I200000J0D01*
G01*
G37*
%TD.AperFunction*%
%TD*%
%TO.P,R2,2*%
%TO.N,D-*%
%TA.AperFunction,SMDPad,CuDef*%
G36*
G01*
X122325000Y-67575000D02*
X122325000Y-67025000D01*
G75*
G02*
X122525000Y-66825000I200000J0D01*
G01*
X122925000Y-66825000D01*
G75*
G02*
X123125000Y-67025000I0J-200000D01*
G01*
X123125000Y-67575000D01*
G75*
G02*
X122925000Y-67775000I-200000J0D01*
G01*
X122525000Y-67775000D01*
G75*
G02*
X122325000Y-67575000I0J200000D01*
G01*
G37*
%TD.AperFunction*%
%TO.P,R2,1*%
%TA.AperFunction,SMDPad,CuDef*%
G36*
G01*
X120675000Y-67575000D02*
X120675000Y-67025000D01*
G75*
G02*
X120875000Y-66825000I200000J0D01*
G01*
X121275000Y-66825000D01*
G75*
G02*
X121475000Y-67025000I0J-200000D01*
G01*
X121475000Y-67575000D01*
G75*
G02*
X121275000Y-67775000I-200000J0D01*
G01*
X120875000Y-67775000D01*
G75*
G02*
X120675000Y-67575000I0J200000D01*
G01*
G37*
%TD.AperFunction*%
%TD*%
%TO.P,R1,2*%
%TO.N,D+*%
%TA.AperFunction,SMDPad,CuDef*%
G36*
G01*
X122325000Y-66115000D02*
X122325000Y-65565000D01*
G75*
G02*
X122525000Y-65365000I200000J0D01*
G01*
X122925000Y-65365000D01*
G75*
G02*
X123125000Y-65565000I0J-200000D01*
G01*
X123125000Y-66115000D01*
G75*
G02*
X122925000Y-66315000I-200000J0D01*
G01*
X122525000Y-66315000D01*
G75*
G02*
X122325000Y-66115000I0J200000D01*
G01*
G37*
%TD.AperFunction*%
%TO.P,R1,1*%
%TA.AperFunction,SMDPad,CuDef*%
G36*
G01*
X120675000Y-66115000D02*
X120675000Y-65565000D01*
G75*
G02*
X120875000Y-65365000I200000J0D01*
G01*
X121275000Y-65365000D01*
G75*
G02*
X121475000Y-65565000I0J-200000D01*
G01*
X121475000Y-66115000D01*
G75*
G02*
X121275000Y-66315000I-200000J0D01*
G01*
X120875000Y-66315000D01*
G75*
G02*
X120675000Y-66115000I0J200000D01*
G01*
G37*
%TD.AperFunction*%
%TD*%
%TO.P,F1,2*%
%TO.N,Net-(F1-Pad2)*%
%TA.AperFunction,SMDPad,CuDef*%
G36*
G01*
X119875000Y-70025000D02*
X119875000Y-68775000D01*
G75*
G02*
X120125000Y-68525000I250000J0D01*
G01*
X120875000Y-68525000D01*
G75*
G02*
X121125000Y-68775000I0J-250000D01*
G01*
X121125000Y-70025000D01*
G75*
G02*
X120875000Y-70275000I-250000J0D01*
G01*
X120125000Y-70275000D01*
G75*
G02*
X119875000Y-70025000I0J250000D01*
G01*
G37*
%TD.AperFunction*%
%TO.P,F1,1*%
%TO.N,+5V*%
%TA.AperFunction,SMDPad,CuDef*%
G36*
G01*
X117075000Y-70025000D02*
X117075000Y-68775000D01*
G75*
G02*
X117325000Y-68525000I250000J0D01*
G01*
X118075000Y-68525000D01*
G75*
G02*
X118325000Y-68775000I0J-250000D01*
G01*
X118325000Y-70025000D01*
G75*
G02*
X118075000Y-70275000I-250000J0D01*
G01*
X117325000Y-70275000D01*
G75*
G02*
X117075000Y-70025000I0J250000D01*
G01*
G37*
%TD.AperFunction*%
%TD*%
%TO.P,C7,2*%
%TO.N,GND*%
%TA.AperFunction,SMDPad,CuDef*%
G36*
G01*
X122455000Y-60950000D02*
X122455000Y-60450000D01*
G75*
G02*
X122680000Y-60225000I225000J0D01*
G01*
X123130000Y-60225000D01*
G75*
G02*
X123355000Y-60450000I0J-225000D01*
G01*
X123355000Y-60950000D01*
G75*
G02*
X123130000Y-61175000I-225000J0D01*
G01*
X122680000Y-61175000D01*
G75*
G02*
X122455000Y-60950000I0J225000D01*
G01*
G37*
%TD.AperFunction*%
%TO.P,C7,1*%
%TO.N,+5V*%
%TA.AperFunction,SMDPad,CuDef*%
G36*
G01*
X120905000Y-60950000D02*
X120905000Y-60450000D01*
G75*
G02*
X121130000Y-60225000I225000J0D01*
G01*
X121580000Y-60225000D01*
G75*
G02*
X121805000Y-60450000I0J-225000D01*
G01*
X121805000Y-60950000D01*
G75*
G02*
X121580000Y-61175000I-225000J0D01*
G01*
X121130000Y-61175000D01*
G75*
G02*
X120905000Y-60950000I0J225000D01*
G01*
G37*
%TD.AperFunction*%
%TD*%
%TO.P,C6,2*%
%TO.N,GND*%
%TA.AperFunction,SMDPad,CuDef*%
G36*
G01*
X122225000Y-63580000D02*
X122225000Y-63080000D01*
G75*
G02*
X122450000Y-62855000I225000J0D01*
G01*
X122900000Y-62855000D01*
G75*
G02*
X123125000Y-63080000I0J-225000D01*
G01*
X123125000Y-63580000D01*
G75*
G02*
X122900000Y-63805000I-225000J0D01*
G01*
X122450000Y-63805000D01*
G75*
G02*
X122225000Y-63580000I0J225000D01*
G01*
G37*
%TD.AperFunction*%
%TO.P,C6,1*%
%TO.N,Net-(C6-Pad1)*%
%TA.AperFunction,SMDPad,CuDef*%
G36*
G01*
X120675000Y-63580000D02*
X120675000Y-63080000D01*
G75*
G02*
X120900000Y-62855000I225000J0D01*
G01*
X121350000Y-62855000D01*
G75*
G02*
X121575000Y-63080000I0J-225000D01*
G01*
X121575000Y-63580000D01*
G75*
G02*
X121350000Y-63805000I-225000J0D01*
G01*
X120900000Y-63805000D01*
G75*
G02*
X120675000Y-63580000I0J225000D01*
G01*
G37*
%TD.AperFunction*%
%TD*%
%TO.P,C5,2*%
%TO.N,GND*%
%TA.AperFunction,SMDPad,CuDef*%
G36*
G01*
X122455000Y-58440000D02*
X122455000Y-57940000D01*
G75*
G02*
X122680000Y-57715000I225000J0D01*
G01*
X123130000Y-57715000D01*
G75*
G02*
X123355000Y-57940000I0J-225000D01*
G01*
X123355000Y-58440000D01*
G75*
G02*
X123130000Y-58665000I-225000J0D01*
G01*
X122680000Y-58665000D01*
G75*
G02*
X122455000Y-58440000I0J225000D01*
G01*
G37*
%TD.AperFunction*%
%TO.P,C5,1*%
%TO.N,+5V*%
%TA.AperFunction,SMDPad,CuDef*%
G36*
G01*
X120905000Y-58440000D02*
X120905000Y-57940000D01*
G75*
G02*
X121130000Y-57715000I225000J0D01*
G01*
X121580000Y-57715000D01*
G75*
G02*
X121805000Y-57940000I0J-225000D01*
G01*
X121805000Y-58440000D01*
G75*
G02*
X121580000Y-58665000I-225000J0D01*
G01*
X121130000Y-58665000D01*
G75*
G02*
X120905000Y-58440000I0J225000D01*
G01*
G37*
%TD.AperFunction*%
%TD*%
%TO.P,C4,2*%
%TO.N,GND*%
%TA.AperFunction,SMDPad,CuDef*%
G36*
G01*
X102725000Y-62050000D02*
X102725000Y-61550000D01*
G75*
G02*
X102950000Y-61325000I225000J0D01*
G01*
X103400000Y-61325000D01*
G75*
G02*
X103625000Y-61550000I0J-225000D01*
G01*
X103625000Y-62050000D01*
G75*
G02*
X103400000Y-62275000I-225000J0D01*
G01*
X102950000Y-62275000D01*
G75*
G02*
X102725000Y-62050000I0J225000D01*
G01*
G37*
%TD.AperFunction*%
%TO.P,C4,1*%
%TO.N,Net-(C4-Pad1)*%
%TA.AperFunction,SMDPad,CuDef*%
G36*
G01*
X101175000Y-62050000D02*
X101175000Y-61550000D01*
G75*
G02*
X101400000Y-61325000I225000J0D01*
G01*
X101850000Y-61325000D01*
G75*
G02*
X102075000Y-61550000I0J-225000D01*
G01*
X102075000Y-62050000D01*
G75*
G02*
X101850000Y-62275000I-225000J0D01*
G01*
X101400000Y-62275000D01*
G75*
G02*
X101175000Y-62050000I0J225000D01*
G01*
G37*
%TD.AperFunction*%
%TD*%
%TO.P,C3,2*%
%TO.N,GND*%
%TA.AperFunction,SMDPad,CuDef*%
G36*
G01*
X107700000Y-52250000D02*
X107700000Y-51750000D01*
G75*
G02*
X107925000Y-51525000I225000J0D01*
G01*
X108375000Y-51525000D01*
G75*
G02*
X108600000Y-51750000I0J-225000D01*
G01*
X108600000Y-52250000D01*
G75*
G02*
X108375000Y-52475000I-225000J0D01*
G01*
X107925000Y-52475000D01*
G75*
G02*
X107700000Y-52250000I0J225000D01*
G01*
G37*
%TD.AperFunction*%
%TO.P,C3,1*%
%TO.N,Net-(C3-Pad1)*%
%TA.AperFunction,SMDPad,CuDef*%
G36*
G01*
X106150000Y-52250000D02*
X106150000Y-51750000D01*
G75*
G02*
X106375000Y-51525000I225000J0D01*
G01*
X106825000Y-51525000D01*
G75*
G02*
X107050000Y-51750000I0J-225000D01*
G01*
X107050000Y-52250000D01*
G75*
G02*
X106825000Y-52475000I-225000J0D01*
G01*
X106375000Y-52475000D01*
G75*
G02*
X106150000Y-52250000I0J225000D01*
G01*
G37*
%TD.AperFunction*%
%TD*%
%TO.P,C2,2*%
%TO.N,GND*%
%TA.AperFunction,SMDPad,CuDef*%
G36*
G01*
X122455000Y-55930000D02*
X122455000Y-55430000D01*
G75*
G02*
X122680000Y-55205000I225000J0D01*
G01*
X123130000Y-55205000D01*
G75*
G02*
X123355000Y-55430000I0J-225000D01*
G01*
X123355000Y-55930000D01*
G75*
G02*
X123130000Y-56155000I-225000J0D01*
G01*
X122680000Y-56155000D01*
G75*
G02*
X122455000Y-55930000I0J225000D01*
G01*
G37*
%TD.AperFunction*%
%TO.P,C2,1*%
%TO.N,+5V*%
%TA.AperFunction,SMDPad,CuDef*%
G36*
G01*
X120905000Y-55930000D02*
X120905000Y-55430000D01*
G75*
G02*
X121130000Y-55205000I225000J0D01*
G01*
X121580000Y-55205000D01*
G75*
G02*
X121805000Y-55430000I0J-225000D01*
G01*
X121805000Y-55930000D01*
G75*
G02*
X121580000Y-56155000I-225000J0D01*
G01*
X121130000Y-56155000D01*
G75*
G02*
X120905000Y-55930000I0J225000D01*
G01*
G37*
%TD.AperFunction*%
%TD*%
%TO.P,C1,2*%
%TO.N,GND*%
%TA.AperFunction,SMDPad,CuDef*%
G36*
G01*
X122450000Y-52650000D02*
X122450000Y-52150000D01*
G75*
G02*
X122675000Y-51925000I225000J0D01*
G01*
X123125000Y-51925000D01*
G75*
G02*
X123350000Y-52150000I0J-225000D01*
G01*
X123350000Y-52650000D01*
G75*
G02*
X123125000Y-52875000I-225000J0D01*
G01*
X122675000Y-52875000D01*
G75*
G02*
X122450000Y-52650000I0J225000D01*
G01*
G37*
%TD.AperFunction*%
%TO.P,C1,1*%
%TO.N,+5V*%
%TA.AperFunction,SMDPad,CuDef*%
G36*
G01*
X120900000Y-52650000D02*
X120900000Y-52150000D01*
G75*
G02*
X121125000Y-51925000I225000J0D01*
G01*
X121575000Y-51925000D01*
G75*
G02*
X121800000Y-52150000I0J-225000D01*
G01*
X121800000Y-52650000D01*
G75*
G02*
X121575000Y-52875000I-225000J0D01*
G01*
X121125000Y-52875000D01*
G75*
G02*
X120900000Y-52650000I0J225000D01*
G01*
G37*
%TD.AperFunction*%
%TD*%
D18*
%TO.N,GND*%
X112400000Y-71200000D03*
X113900000Y-67800000D03*
X110200000Y-67700000D03*
X108000000Y-64500000D03*
X123900000Y-63500000D03*
X115200000Y-73900000D03*
X110000000Y-74000000D03*
D19*
%TO.N,+5V*%
X117700000Y-66200000D03*
X120100000Y-61700000D03*
D18*
X104000000Y-64300000D03*
D19*
%TO.N,Net-(F1-Pad2)*%
X119200000Y-72500000D03*
X119300000Y-67800000D03*
D18*
X111300000Y-74200000D03*
X113800000Y-74200000D03*
%TO.N,Net-(P1-PadB5)*%
X110100000Y-73200000D03*
%TO.N,Net-(P1-PadA5)*%
X113200000Y-73200000D03*
X105800000Y-72100000D03*
D19*
%TO.N,D-*%
X121275000Y-71700000D03*
%TO.N,D+*%
X122325000Y-71700000D03*
D18*
%TO.N,Net-(RST1-Pad1)*%
X114400000Y-59300000D03*
%TD*%
D20*
%TO.N,GND*%
X102200000Y-54800000D02*
X104600000Y-52400000D01*
X102200000Y-56800000D02*
X102200000Y-54800000D01*
X102200000Y-60825000D02*
X103175000Y-61800000D01*
X102200000Y-56800000D02*
X102200000Y-60825000D01*
X107349990Y-51199990D02*
X108150000Y-52000000D01*
X104650010Y-51199990D02*
X107349990Y-51199990D01*
X104600000Y-51250000D02*
X104650010Y-51199990D01*
X104600000Y-52400000D02*
X104600000Y-51250000D01*
D21*
X112400000Y-69300000D02*
X112400000Y-71200000D01*
X112850000Y-64150000D02*
X112350000Y-63650000D01*
X115687500Y-64150000D02*
X112850000Y-64150000D01*
X113350000Y-62650000D02*
X112350000Y-63650000D01*
X113350000Y-60312500D02*
X113350000Y-62650000D01*
X109850000Y-61150000D02*
X112350000Y-63650000D01*
X109012500Y-61150000D02*
X109850000Y-61150000D01*
X109012500Y-61150000D02*
X109012500Y-60912500D01*
X114075000Y-67800000D02*
X113900000Y-67800000D01*
X114350000Y-67525000D02*
X114075000Y-67800000D01*
X114350000Y-66987500D02*
X114350000Y-67525000D01*
X110350000Y-67550000D02*
X110200000Y-67700000D01*
X110350000Y-66987500D02*
X110350000Y-67550000D01*
X107650000Y-64850000D02*
X108000000Y-64500000D01*
X107000000Y-64850000D02*
X107650000Y-64850000D01*
X123730000Y-63330000D02*
X123900000Y-63500000D01*
X122675000Y-63330000D02*
X123730000Y-63330000D01*
X115250000Y-73950000D02*
X115200000Y-73900000D01*
X115250000Y-74960000D02*
X115250000Y-73950000D01*
X109750000Y-74250000D02*
X110000000Y-74000000D01*
X109750000Y-74960000D02*
X109750000Y-74250000D01*
X110000000Y-74000000D02*
X109700000Y-74000000D01*
X109700000Y-74000000D02*
X109900000Y-73800000D01*
X109900000Y-73800000D02*
X110500000Y-73800000D01*
X115100001Y-75660001D02*
X115250000Y-75510002D01*
X109899999Y-75660001D02*
X115100001Y-75660001D01*
X115250000Y-75510002D02*
X115250000Y-74960000D01*
X109750000Y-75510002D02*
X109899999Y-75660001D01*
X109750000Y-74960000D02*
X109750000Y-75510002D01*
D20*
%TO.N,+5V*%
X121350000Y-55675000D02*
X121355000Y-55680000D01*
X121350000Y-52400000D02*
X121350000Y-55675000D01*
X121355000Y-55680000D02*
X121355000Y-58190000D01*
X121355000Y-58190000D02*
X121355000Y-60700000D01*
X113850000Y-59726978D02*
X113850000Y-60312500D01*
X113573012Y-54165986D02*
X113573012Y-59449990D01*
X115338998Y-52400000D02*
X113573012Y-54165986D01*
X113573012Y-59449990D02*
X113850000Y-59726978D01*
X121350000Y-52400000D02*
X115338998Y-52400000D01*
X117700000Y-69400000D02*
X117262500Y-69400000D01*
X116550010Y-67349990D02*
X115881250Y-68018750D01*
X116273022Y-65650000D02*
X116550010Y-65926988D01*
X115687500Y-65650000D02*
X116273022Y-65650000D01*
X116550010Y-65926988D02*
X116550010Y-67349990D01*
X115881250Y-68018750D02*
X114850000Y-66987500D01*
X117262500Y-69400000D02*
X115881250Y-68018750D01*
X117700000Y-69400000D02*
X117700000Y-66200000D01*
X120355000Y-61700000D02*
X121355000Y-60700000D01*
X120100000Y-61700000D02*
X120355000Y-61700000D01*
D21*
X120100000Y-60939998D02*
X120100000Y-61700000D01*
X119160001Y-59999999D02*
X120100000Y-60939998D01*
X116839999Y-59999999D02*
X119160001Y-59999999D01*
X116799999Y-60039999D02*
X116839999Y-59999999D01*
X116799999Y-62600001D02*
X116799999Y-60039999D01*
X116125000Y-63275000D02*
X116799999Y-62600001D01*
X115812500Y-63275000D02*
X116125000Y-63275000D01*
X115687500Y-63150000D02*
X115812500Y-63275000D01*
X109725000Y-67112500D02*
X109850000Y-66987500D01*
X106571800Y-67112500D02*
X109725000Y-67112500D01*
X106324990Y-66865690D02*
X106571800Y-67112500D01*
X106324990Y-64484310D02*
X106324990Y-66865690D01*
X106559310Y-64249990D02*
X106324990Y-64484310D01*
X107310012Y-64249990D02*
X106559310Y-64249990D01*
X108274990Y-61978764D02*
X108274990Y-63285012D01*
X108603754Y-61650000D02*
X108274990Y-61978764D01*
X109012500Y-61650000D02*
X108603754Y-61650000D01*
X104319999Y-63980001D02*
X104000000Y-64300000D01*
X107580001Y-63980001D02*
X104319999Y-63980001D01*
X108274990Y-63285012D02*
X107580001Y-63980001D01*
X107580001Y-63980001D02*
X107310012Y-64249990D01*
D20*
%TO.N,Net-(C3-Pad1)*%
X106600000Y-54800000D02*
X106600000Y-52000000D01*
X104600000Y-56800000D02*
X106600000Y-54800000D01*
X112300000Y-60262500D02*
X112350000Y-60312500D01*
X107423022Y-54800000D02*
X112300000Y-59676978D01*
X112300000Y-59676978D02*
X112300000Y-60262500D01*
X106600000Y-54800000D02*
X107423022Y-54800000D01*
%TO.N,Net-(C4-Pad1)*%
X101174999Y-61349999D02*
X101625000Y-61800000D01*
X101174999Y-53425001D02*
X101174999Y-61349999D01*
X102200000Y-52400000D02*
X101174999Y-53425001D01*
X112850000Y-55447166D02*
X112850000Y-58512500D01*
X108152815Y-50749981D02*
X112850000Y-55447166D01*
X103850019Y-50749981D02*
X108152815Y-50749981D01*
X102200000Y-52400000D02*
X103850019Y-50749981D01*
X112850000Y-58512500D02*
X112850000Y-60312500D01*
%TO.N,Net-(C6-Pad1)*%
X116250020Y-63650000D02*
X115687500Y-63650000D01*
X116325021Y-63725001D02*
X116250020Y-63650000D01*
X120729999Y-63725001D02*
X116325021Y-63725001D01*
X121125000Y-63330000D02*
X120729999Y-63725001D01*
%TO.N,Net-(F1-Pad2)*%
X120500000Y-69400000D02*
X120100000Y-69400000D01*
D21*
X111250000Y-74250000D02*
X111300000Y-74200000D01*
X111250000Y-74960000D02*
X111250000Y-74250000D01*
X113800000Y-74910000D02*
X113750000Y-74960000D01*
X113800000Y-74200000D02*
X113800000Y-74910000D01*
X120500000Y-69000000D02*
X119300000Y-67800000D01*
X120500000Y-69400000D02*
X120500000Y-69000000D01*
%TO.N,Net-(P1-PadB5)*%
X106600000Y-69700000D02*
X110100000Y-73200000D01*
X104200000Y-69700000D02*
X106600000Y-69700000D01*
%TO.N,Net-(P1-PadA5)*%
X113250000Y-73250000D02*
X113200000Y-73200000D01*
X113250000Y-74960000D02*
X113250000Y-73250000D01*
X105800000Y-72100000D02*
X104300000Y-72100000D01*
D20*
%TO.N,Net-(R3-Pad2)*%
X107350000Y-66150000D02*
X107000000Y-66500000D01*
X109012500Y-66150000D02*
X107350000Y-66150000D01*
D21*
%TO.N,Net-(SW1-PadA)*%
X111350000Y-67850000D02*
X111350000Y-66987500D01*
X109900000Y-69300000D02*
X111350000Y-67850000D01*
%TO.N,Net-(SW1-PadB)*%
X111850000Y-67525000D02*
X111850000Y-66987500D01*
X112424999Y-68099999D02*
X111850000Y-67525000D01*
X113699999Y-68099999D02*
X112424999Y-68099999D01*
X114900000Y-69300000D02*
X113699999Y-68099999D01*
D20*
%TO.N,Net-(SW1-PadS1)*%
X114900000Y-60262500D02*
X114850000Y-60312500D01*
X114900000Y-54800000D02*
X114900000Y-60262500D01*
D21*
%TO.N,D-*%
X120570000Y-66795000D02*
X119576800Y-66795000D01*
X121075000Y-67300000D02*
X120570000Y-66795000D01*
X117906800Y-65125000D02*
X115712500Y-65125000D01*
X115712500Y-65125000D02*
X115687500Y-65150000D01*
X119576800Y-66795000D02*
X117906800Y-65125000D01*
X121575000Y-71400000D02*
X121275000Y-71700000D01*
X122725000Y-69456800D02*
X121575000Y-70606800D01*
X121575000Y-70606800D02*
X121575000Y-71400000D01*
X122725000Y-67300000D02*
X122725000Y-69456800D01*
X112250000Y-74209999D02*
X112250000Y-74960000D01*
X112300000Y-72253588D02*
X112300000Y-74159999D01*
X112424991Y-72128597D02*
X112300000Y-72253588D01*
X112300000Y-74159999D02*
X112250000Y-74209999D01*
D20*
X120749980Y-71174980D02*
X121275000Y-71700000D01*
X117618952Y-71169648D02*
X117666276Y-71174980D01*
X117574002Y-71153920D02*
X117618952Y-71169648D01*
X117533679Y-71128583D02*
X117574002Y-71153920D01*
X117474668Y-71054586D02*
X117500005Y-71094909D01*
X117458940Y-71009636D02*
X117474668Y-71054586D01*
X117432547Y-70870038D02*
X117448275Y-70914988D01*
X117407210Y-70829715D02*
X117432547Y-70870038D01*
X117373536Y-70796041D02*
X117407210Y-70829715D01*
X116858940Y-70914988D02*
X116874668Y-70870038D01*
X116853608Y-70962311D02*
X116858940Y-70914988D01*
X116853608Y-71224980D02*
X116853608Y-70962311D01*
X116848656Y-71246674D02*
X116852354Y-71236106D01*
X116834782Y-71264071D02*
X116842699Y-71256154D01*
X116825302Y-71270028D02*
X116834782Y-71264071D01*
X116874668Y-70870038D02*
X116900005Y-70829715D01*
X116303608Y-71274980D02*
X116803608Y-71274980D01*
X116281913Y-71270028D02*
X116292481Y-71273726D01*
X116814734Y-71273726D02*
X116825302Y-71270028D01*
X116272433Y-71264071D02*
X116281913Y-71270028D01*
X116852354Y-71236106D02*
X116853608Y-71224980D01*
X116264516Y-71256154D02*
X116272433Y-71264071D01*
X116258559Y-71246674D02*
X116264516Y-71256154D01*
X116248656Y-71203285D02*
X116252354Y-71213853D01*
X116242699Y-71193805D02*
X116248656Y-71203285D01*
X116234782Y-71185888D02*
X116242699Y-71193805D01*
X116214734Y-71176233D02*
X116225302Y-71179931D01*
X116136851Y-71167459D02*
X116214734Y-71176233D01*
X117288263Y-70754976D02*
X117333213Y-70770704D01*
X116016561Y-71109530D02*
X116073442Y-71145271D01*
X115969058Y-71062027D02*
X116016561Y-71109530D01*
X115933317Y-71005146D02*
X115969058Y-71062027D01*
X117240940Y-70749643D02*
X117288263Y-70754976D01*
X115911129Y-70941737D02*
X115933317Y-71005146D01*
X115903608Y-70874980D02*
X115911129Y-70941737D01*
X115903608Y-70793754D02*
X115903608Y-70874980D01*
X115873898Y-70663589D02*
X115896086Y-70726998D01*
X115838157Y-70606708D02*
X115873898Y-70663589D01*
X115790654Y-70559205D02*
X115838157Y-70606708D01*
X115670364Y-70501276D02*
X115733773Y-70523464D01*
X115603608Y-70493754D02*
X115670364Y-70501276D01*
X115536851Y-70501276D02*
X115603608Y-70493754D01*
X115473442Y-70523464D02*
X115536851Y-70501276D01*
X114167010Y-70703173D02*
X114213026Y-70657157D01*
X114094221Y-71174980D02*
X114103608Y-71174980D01*
X114819221Y-71406206D02*
X115187995Y-71406206D01*
X114004334Y-71403307D02*
X114028770Y-71394756D01*
X116225302Y-71179931D02*
X116234782Y-71185888D01*
X113497119Y-71316319D02*
X113505670Y-71340755D01*
X116292481Y-71273726D02*
X116303608Y-71274980D01*
X114715057Y-71340755D02*
X114728831Y-71362676D01*
X117333213Y-70770704D02*
X117373536Y-70796041D01*
X116073442Y-71145271D02*
X116136851Y-71167459D01*
X113609834Y-71406206D02*
X113978608Y-71406206D01*
X116842699Y-71256154D02*
X116848656Y-71246674D01*
X113584107Y-71403307D02*
X113609834Y-71406206D01*
X115278384Y-71362676D02*
X115292158Y-71340755D01*
X112424991Y-72128597D02*
X113378608Y-71174980D01*
X115303608Y-71290593D02*
X115303608Y-70793754D01*
X113519444Y-71362676D02*
X113537750Y-71380982D01*
X116974002Y-70770704D02*
X117018952Y-70754976D01*
X114132387Y-70758275D02*
X114167010Y-70703173D01*
X116900005Y-70829715D02*
X116933679Y-70796041D01*
X116803608Y-71274980D02*
X116814734Y-71273726D01*
X114091322Y-71316319D02*
X114094221Y-71290593D01*
X113428770Y-71186429D02*
X113450691Y-71200203D01*
X113378608Y-71174980D02*
X113404334Y-71177878D01*
X117666276Y-71174980D02*
X120749980Y-71174980D01*
X115896086Y-70726998D02*
X115903608Y-70793754D01*
X113468997Y-71218509D02*
X113482771Y-71240430D01*
X114082771Y-71340755D02*
X114091322Y-71316319D01*
X117066276Y-70749643D02*
X117240940Y-70749643D01*
X115733773Y-70523464D02*
X115790654Y-70559205D01*
X113559671Y-71394756D02*
X113584107Y-71403307D01*
X113404334Y-71177878D02*
X113428770Y-71186429D01*
X114594189Y-70657157D02*
X114640205Y-70703173D01*
X114028770Y-71394756D02*
X114050691Y-71380982D01*
X114706506Y-71316319D02*
X114715057Y-71340755D01*
X113450691Y-71200203D02*
X113468997Y-71218509D01*
X113482771Y-71240430D02*
X113491322Y-71264866D01*
X115333317Y-70663589D02*
X115369058Y-70606708D01*
X114728831Y-71362676D02*
X114747137Y-71380982D01*
X113491322Y-71264866D02*
X113497119Y-71316319D01*
X114110894Y-70819700D02*
X114132387Y-70758275D01*
X117018952Y-70754976D02*
X117066276Y-70749643D01*
X114103608Y-70884367D02*
X114110894Y-70819700D01*
X114103608Y-71174980D02*
X114103608Y-70884367D01*
X114094221Y-71290593D02*
X114094221Y-71174980D01*
X116933679Y-70796041D02*
X116974002Y-70770704D01*
X114793494Y-71403307D02*
X114819221Y-71406206D01*
X113505670Y-71340755D02*
X113519444Y-71362676D01*
X114703608Y-71290593D02*
X114706506Y-71316319D01*
X113537750Y-71380982D02*
X113559671Y-71394756D01*
X116252354Y-71213853D02*
X116254861Y-71236106D01*
X114539087Y-70622534D02*
X114594189Y-70657157D01*
X115300709Y-71316319D02*
X115303608Y-71290593D01*
X114674828Y-70758275D02*
X114696321Y-70819700D01*
X114068997Y-71362676D02*
X114082771Y-71340755D01*
X114213026Y-70657157D02*
X114268128Y-70622534D01*
X117448275Y-70914988D02*
X117458940Y-71009636D01*
X114268128Y-70622534D02*
X114329553Y-70601041D01*
X114329553Y-70601041D02*
X114394221Y-70593754D01*
X115238157Y-71394756D02*
X115260078Y-71380982D01*
X114394221Y-70593754D02*
X114412995Y-70593754D01*
X115260078Y-71380982D02*
X115278384Y-71362676D01*
X114412995Y-70593754D02*
X114477662Y-70601041D01*
X113978608Y-71406206D02*
X114004334Y-71403307D01*
X114477662Y-70601041D02*
X114539087Y-70622534D01*
X114050691Y-71380982D02*
X114068997Y-71362676D01*
X114640205Y-70703173D02*
X114674828Y-70758275D01*
X114696321Y-70819700D02*
X114703608Y-70884367D01*
X114703608Y-70884367D02*
X114703608Y-71290593D01*
X115369058Y-70606708D02*
X115416561Y-70559205D01*
X114747137Y-71380982D02*
X114769058Y-71394756D01*
X115416561Y-70559205D02*
X115473442Y-70523464D01*
X114769058Y-71394756D02*
X114793494Y-71403307D01*
X117500005Y-71094909D02*
X117533679Y-71128583D01*
X115187995Y-71406206D02*
X115213721Y-71403307D01*
X115213721Y-71403307D02*
X115238157Y-71394756D01*
X115292158Y-71340755D02*
X115300709Y-71316319D01*
X116254861Y-71236106D02*
X116258559Y-71246674D01*
X115303608Y-70793754D02*
X115311129Y-70726998D01*
X115311129Y-70726998D02*
X115333317Y-70663589D01*
D21*
%TO.N,D+*%
X120570000Y-66345000D02*
X119763200Y-66345000D01*
X121075000Y-65840000D02*
X120570000Y-66345000D01*
X115712500Y-64675000D02*
X115687500Y-64650000D01*
X118093200Y-64675000D02*
X115712500Y-64675000D01*
X119763200Y-66345000D02*
X118093200Y-64675000D01*
X112841420Y-72348578D02*
X112875000Y-72314998D01*
X112700000Y-74159999D02*
X112700000Y-72489998D01*
X112750000Y-74209999D02*
X112700000Y-74159999D01*
X112700000Y-72489998D02*
X112841420Y-72348578D01*
X112750000Y-74960000D02*
X112750000Y-74209999D01*
X122750740Y-65865740D02*
X122725000Y-65840000D01*
X123175000Y-66290000D02*
X122750740Y-65865740D01*
X123175000Y-66567878D02*
X123175000Y-66290000D01*
X123425010Y-66817888D02*
X123175000Y-66567878D01*
X123425010Y-67782112D02*
X123425010Y-66817888D01*
X123175000Y-68032122D02*
X123425010Y-67782112D01*
X122025000Y-70793200D02*
X123175000Y-69643200D01*
X123175000Y-69643200D02*
X123175000Y-68032122D01*
X122025000Y-71400000D02*
X122025000Y-70793200D01*
X122325000Y-71700000D02*
X122025000Y-71400000D01*
D20*
X121599999Y-72425001D02*
X122325000Y-71700000D01*
X120926999Y-72425001D02*
X121599999Y-72425001D01*
X120126988Y-71624990D02*
X120926999Y-72425001D01*
X114430830Y-71900000D02*
X115624682Y-71900000D01*
X114313500Y-71926779D02*
X114370656Y-71906779D01*
X117173756Y-71686116D02*
X117176263Y-71663863D01*
X114262228Y-71958996D02*
X114313500Y-71926779D01*
X114187193Y-72053086D02*
X114219410Y-72001814D01*
X114153634Y-72230589D02*
X114167193Y-72110242D01*
X117146704Y-71720038D02*
X117156184Y-71714081D01*
X114167193Y-72110242D02*
X114187193Y-72053086D01*
X114133634Y-72287745D02*
X114153634Y-72230589D01*
X114058599Y-72381835D02*
X114101417Y-72339017D01*
X114007327Y-72414052D02*
X114058599Y-72381835D01*
X113950171Y-72434052D02*
X114007327Y-72414052D01*
X113553634Y-72110242D02*
X113567193Y-72230589D01*
X116613883Y-71723736D02*
X116625010Y-71724990D01*
X114101417Y-72339017D02*
X114133634Y-72287745D01*
X113830830Y-72440832D02*
X113889998Y-72440832D01*
X116579961Y-71696684D02*
X116585918Y-71706164D01*
X113889998Y-72440832D02*
X113950171Y-72434052D01*
X116573756Y-71663863D02*
X116576263Y-71686116D01*
X114219410Y-72001814D02*
X114262228Y-71958996D01*
X113770656Y-72434052D02*
X113830830Y-72440832D01*
X112875000Y-72314998D02*
X113289998Y-71900000D01*
X117185918Y-71643815D02*
X117193835Y-71635898D01*
X116525010Y-71624990D02*
X116536136Y-71626243D01*
X113350171Y-71906779D02*
X113407327Y-71926779D01*
X113407327Y-71926779D02*
X113458599Y-71958996D01*
X113458599Y-71958996D02*
X113501417Y-72001814D01*
X116585918Y-71706164D02*
X116593835Y-71714081D01*
X113587193Y-72287745D02*
X113619410Y-72339017D01*
X113567193Y-72230589D02*
X113587193Y-72287745D01*
X115624682Y-71900000D02*
X115899692Y-71624990D01*
X117176263Y-71663863D02*
X117179961Y-71653295D01*
X113501417Y-72001814D02*
X113533634Y-72053086D01*
X113533634Y-72053086D02*
X113553634Y-72110242D01*
X113619410Y-72339017D02*
X113662228Y-72381835D01*
X117125010Y-71724990D02*
X117136136Y-71723736D01*
X113662228Y-72381835D02*
X113713500Y-72414052D01*
X113713500Y-72414052D02*
X113770656Y-72434052D01*
X116576263Y-71686116D02*
X116579961Y-71696684D01*
X115899692Y-71624990D02*
X116525010Y-71624990D01*
X117179961Y-71653295D02*
X117185918Y-71643815D01*
X116536136Y-71626243D02*
X116546704Y-71629941D01*
X117193835Y-71635898D02*
X117203315Y-71629941D01*
X116546704Y-71629941D02*
X116556184Y-71635898D01*
X117203315Y-71629941D02*
X117213883Y-71626243D01*
X116556184Y-71635898D02*
X116564101Y-71643815D01*
X117213883Y-71626243D02*
X117225010Y-71624990D01*
X113289998Y-71900000D02*
X113350171Y-71906779D01*
X116564101Y-71643815D02*
X116570058Y-71653295D01*
X117225010Y-71624990D02*
X120126988Y-71624990D01*
X116570058Y-71653295D02*
X116573756Y-71663863D01*
X116593835Y-71714081D02*
X116603315Y-71720038D01*
X116603315Y-71720038D02*
X116613883Y-71723736D01*
X116625010Y-71724990D02*
X117125010Y-71724990D01*
X117136136Y-71723736D02*
X117146704Y-71720038D01*
X114370656Y-71906779D02*
X114430830Y-71900000D01*
X117156184Y-71714081D02*
X117164101Y-71706164D01*
X117164101Y-71706164D02*
X117170058Y-71696684D01*
X117170058Y-71696684D02*
X117173756Y-71686116D01*
D21*
%TO.N,Net-(RST1-Pad1)*%
X114350000Y-59350000D02*
X114400000Y-59300000D01*
X114350000Y-60312500D02*
X114350000Y-59350000D01*
%TD*%
D22*
%TO.N,GND*%
X104727000Y-52473000D02*
X104747000Y-52473000D01*
X104747000Y-52727000D01*
X104727000Y-52727000D01*
X104727000Y-53976250D01*
X104885750Y-54135000D01*
X105200000Y-54138072D01*
X105324482Y-54125812D01*
X105444180Y-54089502D01*
X105554494Y-54030537D01*
X105651185Y-53951185D01*
X105730537Y-53854494D01*
X105789502Y-53744180D01*
X105825812Y-53624482D01*
X105838072Y-53500000D01*
X105835162Y-52918097D01*
X105840001Y-52922068D01*
X105840000Y-54485198D01*
X105257598Y-55067601D01*
X105200000Y-55061928D01*
X104000000Y-55061928D01*
X103875518Y-55074188D01*
X103755820Y-55110498D01*
X103645506Y-55169463D01*
X103548815Y-55248815D01*
X103469463Y-55345506D01*
X103410498Y-55455820D01*
X103400000Y-55490427D01*
X103389502Y-55455820D01*
X103330537Y-55345506D01*
X103251185Y-55248815D01*
X103154494Y-55169463D01*
X103044180Y-55110498D01*
X102924482Y-55074188D01*
X102800000Y-55061928D01*
X102485750Y-55065000D01*
X102327000Y-55223750D01*
X102327000Y-56473000D01*
X102347000Y-56473000D01*
X102347000Y-56727000D01*
X102327000Y-56727000D01*
X102327000Y-57976250D01*
X102485750Y-58135000D01*
X102800000Y-58138072D01*
X102924482Y-58125812D01*
X103044180Y-58089502D01*
X103154494Y-58030537D01*
X103251185Y-57951185D01*
X103330537Y-57854494D01*
X103389502Y-57744180D01*
X103400000Y-57709573D01*
X103410498Y-57744180D01*
X103469463Y-57854494D01*
X103548815Y-57951185D01*
X103645506Y-58030537D01*
X103755820Y-58089502D01*
X103875518Y-58125812D01*
X104000000Y-58138072D01*
X105200000Y-58138072D01*
X105324482Y-58125812D01*
X105444180Y-58089502D01*
X105554494Y-58030537D01*
X105651185Y-57951185D01*
X105730537Y-57854494D01*
X105789502Y-57744180D01*
X105825812Y-57624482D01*
X105838072Y-57500000D01*
X105838072Y-56636729D01*
X106914802Y-55560000D01*
X107108221Y-55560000D01*
X110694324Y-59146105D01*
X110650825Y-59150389D01*
X110600000Y-59165807D01*
X110549175Y-59150389D01*
X110412500Y-59136928D01*
X110287500Y-59136928D01*
X110150825Y-59150389D01*
X110100000Y-59165807D01*
X110049175Y-59150389D01*
X109912500Y-59136928D01*
X109787500Y-59136928D01*
X109650825Y-59150389D01*
X109519403Y-59190256D01*
X109398283Y-59254996D01*
X109292121Y-59342121D01*
X109204996Y-59448283D01*
X109140256Y-59569403D01*
X109100389Y-59700825D01*
X109086928Y-59837500D01*
X109086928Y-60787500D01*
X109096721Y-60886928D01*
X108885500Y-60886928D01*
X108885500Y-60548750D01*
X108726750Y-60390000D01*
X108487591Y-60387052D01*
X108438072Y-60390944D01*
X108438072Y-60200000D01*
X108425812Y-60075518D01*
X108389502Y-59955820D01*
X108330537Y-59845506D01*
X108251185Y-59748815D01*
X108154494Y-59669463D01*
X108044180Y-59610498D01*
X107924482Y-59574188D01*
X107800000Y-59561928D01*
X105800000Y-59561928D01*
X105675518Y-59574188D01*
X105555820Y-59610498D01*
X105445506Y-59669463D01*
X105348815Y-59748815D01*
X105269463Y-59845506D01*
X105210498Y-59955820D01*
X105174188Y-60075518D01*
X105161928Y-60200000D01*
X105161928Y-63245001D01*
X104356104Y-63245001D01*
X104319999Y-63241445D01*
X104283894Y-63245001D01*
X104175914Y-63255636D01*
X104037366Y-63297664D01*
X103909679Y-63365914D01*
X103797761Y-63457763D01*
X103774740Y-63485814D01*
X103531468Y-63729086D01*
X103531465Y-63729088D01*
X103429088Y-63831465D01*
X103408923Y-63861644D01*
X103385914Y-63889681D01*
X103368815Y-63921670D01*
X103348652Y-63951847D01*
X103334765Y-63985374D01*
X103317664Y-64017367D01*
X103307132Y-64052084D01*
X103293246Y-64085609D01*
X103286167Y-64121195D01*
X103275635Y-64155915D01*
X103272079Y-64192022D01*
X103265000Y-64227609D01*
X103265000Y-64263895D01*
X103261444Y-64300000D01*
X103265000Y-64336105D01*
X103265000Y-64372391D01*
X103272079Y-64407978D01*
X103275635Y-64444085D01*
X103286167Y-64478805D01*
X103293246Y-64514391D01*
X103307132Y-64547916D01*
X103317664Y-64582633D01*
X103334765Y-64614626D01*
X103348652Y-64648153D01*
X103368815Y-64678330D01*
X103385914Y-64710319D01*
X103408922Y-64738354D01*
X103429088Y-64768535D01*
X103454756Y-64794203D01*
X103477763Y-64822237D01*
X103505797Y-64845244D01*
X103531465Y-64870912D01*
X103561646Y-64891078D01*
X103589681Y-64914086D01*
X103621670Y-64931185D01*
X103651847Y-64951348D01*
X103685374Y-64965235D01*
X103717367Y-64982336D01*
X103752084Y-64992868D01*
X103785609Y-65006754D01*
X103821195Y-65013833D01*
X103855915Y-65024365D01*
X103892022Y-65027921D01*
X103927609Y-65035000D01*
X103963895Y-65035000D01*
X104000000Y-65038556D01*
X104036105Y-65035000D01*
X104072391Y-65035000D01*
X104107978Y-65027921D01*
X104144085Y-65024365D01*
X104178805Y-65013833D01*
X104214391Y-65006754D01*
X104247916Y-64992868D01*
X104282633Y-64982336D01*
X104314626Y-64965235D01*
X104348153Y-64951348D01*
X104378330Y-64931185D01*
X104410319Y-64914086D01*
X104438356Y-64891077D01*
X104468535Y-64870912D01*
X104570912Y-64768535D01*
X104570914Y-64768532D01*
X104624445Y-64715001D01*
X105589990Y-64715001D01*
X105589991Y-66829575D01*
X105586434Y-66865690D01*
X105600625Y-67009775D01*
X105635772Y-67125635D01*
X105642654Y-67148323D01*
X105710904Y-67276010D01*
X105802753Y-67387928D01*
X105830798Y-67410944D01*
X106026541Y-67606687D01*
X106049562Y-67634738D01*
X106161480Y-67726587D01*
X106289167Y-67794837D01*
X106395468Y-67827083D01*
X106427714Y-67836865D01*
X106571799Y-67851056D01*
X106607904Y-67847500D01*
X108450417Y-67847500D01*
X108448815Y-67848815D01*
X108369463Y-67945506D01*
X108310498Y-68055820D01*
X108274188Y-68175518D01*
X108261928Y-68300000D01*
X108261928Y-70300000D01*
X108264384Y-70324938D01*
X107145259Y-69205813D01*
X107122238Y-69177762D01*
X107010320Y-69085913D01*
X106882633Y-69017663D01*
X106744085Y-68975635D01*
X106636105Y-68965000D01*
X106600000Y-68961444D01*
X106563895Y-68965000D01*
X105099829Y-68965000D01*
X105096831Y-68959392D01*
X104992606Y-68832394D01*
X104865608Y-68728169D01*
X104720716Y-68650722D01*
X104563500Y-68603031D01*
X104400000Y-68586928D01*
X104000000Y-68586928D01*
X103836500Y-68603031D01*
X103679284Y-68650722D01*
X103534392Y-68728169D01*
X103432410Y-68811863D01*
X103401185Y-68773815D01*
X103304494Y-68694463D01*
X103194180Y-68635498D01*
X103074482Y-68599188D01*
X102950000Y-68586928D01*
X102835750Y-68590000D01*
X102677000Y-68748750D01*
X102677000Y-69573000D01*
X102697000Y-69573000D01*
X102697000Y-69827000D01*
X102677000Y-69827000D01*
X102677000Y-70651250D01*
X102835750Y-70810000D01*
X102950000Y-70813072D01*
X103074482Y-70800812D01*
X103194180Y-70764502D01*
X103304494Y-70705537D01*
X103401185Y-70626185D01*
X103432410Y-70588137D01*
X103534392Y-70671831D01*
X103679284Y-70749278D01*
X103836500Y-70796969D01*
X104000000Y-70813072D01*
X104400000Y-70813072D01*
X104563500Y-70796969D01*
X104720716Y-70749278D01*
X104865608Y-70671831D01*
X104992606Y-70567606D01*
X105096831Y-70440608D01*
X105099829Y-70435000D01*
X106295554Y-70435000D01*
X109529088Y-73668535D01*
X109631465Y-73770912D01*
X109661635Y-73791071D01*
X109689679Y-73814086D01*
X109710098Y-73825000D01*
X109622998Y-73825000D01*
X109622998Y-73919748D01*
X109528250Y-73825000D01*
X109423391Y-73836723D01*
X109304421Y-73875350D01*
X109195272Y-73936445D01*
X109100140Y-74017660D01*
X109022680Y-74115874D01*
X108965869Y-74227312D01*
X108941117Y-74315000D01*
X100685000Y-74315000D01*
X100685000Y-72575000D01*
X101611928Y-72575000D01*
X101624188Y-72699482D01*
X101660498Y-72819180D01*
X101719463Y-72929494D01*
X101798815Y-73026185D01*
X101895506Y-73105537D01*
X102005820Y-73164502D01*
X102125518Y-73200812D01*
X102250000Y-73213072D01*
X102364250Y-73210000D01*
X102523000Y-73051250D01*
X102523000Y-72227000D01*
X101773750Y-72227000D01*
X101615000Y-72385750D01*
X101611928Y-72575000D01*
X100685000Y-72575000D01*
X100685000Y-71625000D01*
X101611928Y-71625000D01*
X101615000Y-71814250D01*
X101773750Y-71973000D01*
X102523000Y-71973000D01*
X102523000Y-71148750D01*
X102777000Y-71148750D01*
X102777000Y-71973000D01*
X102797000Y-71973000D01*
X102797000Y-72227000D01*
X102777000Y-72227000D01*
X102777000Y-73051250D01*
X102935750Y-73210000D01*
X103050000Y-73213072D01*
X103174482Y-73200812D01*
X103294180Y-73164502D01*
X103404494Y-73105537D01*
X103501185Y-73026185D01*
X103532410Y-72988137D01*
X103634392Y-73071831D01*
X103779284Y-73149278D01*
X103936500Y-73196969D01*
X104100000Y-73213072D01*
X104500000Y-73213072D01*
X104663500Y-73196969D01*
X104820716Y-73149278D01*
X104965608Y-73071831D01*
X105092606Y-72967606D01*
X105196831Y-72840608D01*
X105199829Y-72835000D01*
X105872391Y-72835000D01*
X105907978Y-72827921D01*
X105944085Y-72824365D01*
X105978807Y-72813832D01*
X106014391Y-72806754D01*
X106047909Y-72792870D01*
X106082633Y-72782337D01*
X106114635Y-72765232D01*
X106148153Y-72751348D01*
X106178319Y-72731192D01*
X106210320Y-72714087D01*
X106238366Y-72691070D01*
X106268535Y-72670912D01*
X106294193Y-72645254D01*
X106322238Y-72622238D01*
X106345254Y-72594193D01*
X106370912Y-72568535D01*
X106391070Y-72538366D01*
X106414087Y-72510320D01*
X106431192Y-72478319D01*
X106451348Y-72448153D01*
X106465232Y-72414635D01*
X106482337Y-72382633D01*
X106492870Y-72347909D01*
X106506754Y-72314391D01*
X106513832Y-72278807D01*
X106524365Y-72244085D01*
X106527921Y-72207978D01*
X106535000Y-72172391D01*
X106535000Y-72136105D01*
X106538556Y-72100000D01*
X106535000Y-72063895D01*
X106535000Y-72027609D01*
X106527921Y-71992022D01*
X106524365Y-71955915D01*
X106513832Y-71921193D01*
X106506754Y-71885609D01*
X106492870Y-71852091D01*
X106482337Y-71817367D01*
X106465232Y-71785365D01*
X106451348Y-71751847D01*
X106431192Y-71721681D01*
X106414087Y-71689680D01*
X106391070Y-71661634D01*
X106370912Y-71631465D01*
X106345254Y-71605807D01*
X106322238Y-71577762D01*
X106294193Y-71554746D01*
X106268535Y-71529088D01*
X106238366Y-71508930D01*
X106210320Y-71485913D01*
X106178319Y-71468808D01*
X106148153Y-71448652D01*
X106114635Y-71434768D01*
X106082633Y-71417663D01*
X106047909Y-71407130D01*
X106014391Y-71393246D01*
X105978807Y-71386168D01*
X105944085Y-71375635D01*
X105907978Y-71372079D01*
X105872391Y-71365000D01*
X105199829Y-71365000D01*
X105196831Y-71359392D01*
X105092606Y-71232394D01*
X104965608Y-71128169D01*
X104820716Y-71050722D01*
X104663500Y-71003031D01*
X104500000Y-70986928D01*
X104100000Y-70986928D01*
X103936500Y-71003031D01*
X103779284Y-71050722D01*
X103634392Y-71128169D01*
X103532410Y-71211863D01*
X103501185Y-71173815D01*
X103404494Y-71094463D01*
X103294180Y-71035498D01*
X103174482Y-70999188D01*
X103050000Y-70986928D01*
X102935750Y-70990000D01*
X102777000Y-71148750D01*
X102523000Y-71148750D01*
X102364250Y-70990000D01*
X102250000Y-70986928D01*
X102125518Y-70999188D01*
X102005820Y-71035498D01*
X101895506Y-71094463D01*
X101798815Y-71173815D01*
X101719463Y-71270506D01*
X101660498Y-71380820D01*
X101624188Y-71500518D01*
X101611928Y-71625000D01*
X100685000Y-71625000D01*
X100685000Y-70175000D01*
X101511928Y-70175000D01*
X101524188Y-70299482D01*
X101560498Y-70419180D01*
X101619463Y-70529494D01*
X101698815Y-70626185D01*
X101795506Y-70705537D01*
X101905820Y-70764502D01*
X102025518Y-70800812D01*
X102150000Y-70813072D01*
X102264250Y-70810000D01*
X102423000Y-70651250D01*
X102423000Y-69827000D01*
X101673750Y-69827000D01*
X101515000Y-69985750D01*
X101511928Y-70175000D01*
X100685000Y-70175000D01*
X100685000Y-69225000D01*
X101511928Y-69225000D01*
X101515000Y-69414250D01*
X101673750Y-69573000D01*
X102423000Y-69573000D01*
X102423000Y-68748750D01*
X102264250Y-68590000D01*
X102150000Y-68586928D01*
X102025518Y-68599188D01*
X101905820Y-68635498D01*
X101795506Y-68694463D01*
X101698815Y-68773815D01*
X101619463Y-68870506D01*
X101560498Y-68980820D01*
X101524188Y-69100518D01*
X101511928Y-69225000D01*
X100685000Y-69225000D01*
X100685000Y-62532687D01*
X100789716Y-62660284D01*
X100920503Y-62767618D01*
X101069717Y-62847375D01*
X101231623Y-62896488D01*
X101400000Y-62913072D01*
X101850000Y-62913072D01*
X102018377Y-62896488D01*
X102180283Y-62847375D01*
X102326351Y-62769300D01*
X102370506Y-62805537D01*
X102480820Y-62864502D01*
X102600518Y-62900812D01*
X102725000Y-62913072D01*
X102889250Y-62910000D01*
X103048000Y-62751250D01*
X103048000Y-61927000D01*
X103302000Y-61927000D01*
X103302000Y-62751250D01*
X103460750Y-62910000D01*
X103625000Y-62913072D01*
X103749482Y-62900812D01*
X103869180Y-62864502D01*
X103979494Y-62805537D01*
X104076185Y-62726185D01*
X104155537Y-62629494D01*
X104214502Y-62519180D01*
X104250812Y-62399482D01*
X104263072Y-62275000D01*
X104260000Y-62085750D01*
X104101250Y-61927000D01*
X103302000Y-61927000D01*
X103048000Y-61927000D01*
X103028000Y-61927000D01*
X103028000Y-61673000D01*
X103048000Y-61673000D01*
X103048000Y-60848750D01*
X103302000Y-60848750D01*
X103302000Y-61673000D01*
X104101250Y-61673000D01*
X104260000Y-61514250D01*
X104263072Y-61325000D01*
X104250812Y-61200518D01*
X104214502Y-61080820D01*
X104155537Y-60970506D01*
X104076185Y-60873815D01*
X103979494Y-60794463D01*
X103869180Y-60735498D01*
X103749482Y-60699188D01*
X103625000Y-60686928D01*
X103460750Y-60690000D01*
X103302000Y-60848750D01*
X103048000Y-60848750D01*
X102889250Y-60690000D01*
X102725000Y-60686928D01*
X102600518Y-60699188D01*
X102480820Y-60735498D01*
X102370506Y-60794463D01*
X102326351Y-60830700D01*
X102180283Y-60752625D01*
X102018377Y-60703512D01*
X101934999Y-60695300D01*
X101934999Y-58114251D01*
X102073000Y-57976250D01*
X102073000Y-56727000D01*
X102053000Y-56727000D01*
X102053000Y-56473000D01*
X102073000Y-56473000D01*
X102073000Y-55223750D01*
X101934999Y-55085749D01*
X101934999Y-54138072D01*
X102800000Y-54138072D01*
X102924482Y-54125812D01*
X103044180Y-54089502D01*
X103154494Y-54030537D01*
X103251185Y-53951185D01*
X103330537Y-53854494D01*
X103389502Y-53744180D01*
X103400000Y-53709573D01*
X103410498Y-53744180D01*
X103469463Y-53854494D01*
X103548815Y-53951185D01*
X103645506Y-54030537D01*
X103755820Y-54089502D01*
X103875518Y-54125812D01*
X104000000Y-54138072D01*
X104314250Y-54135000D01*
X104473000Y-53976250D01*
X104473000Y-52727000D01*
X104453000Y-52727000D01*
X104453000Y-52473000D01*
X104473000Y-52473000D01*
X104473000Y-52453000D01*
X104727000Y-52453000D01*
X104727000Y-52473000D01*
%TA.AperFunction,Conductor*%
D23*
G36*
X104727000Y-52473000D02*
G01*
X104747000Y-52473000D01*
X104747000Y-52727000D01*
X104727000Y-52727000D01*
X104727000Y-53976250D01*
X104885750Y-54135000D01*
X105200000Y-54138072D01*
X105324482Y-54125812D01*
X105444180Y-54089502D01*
X105554494Y-54030537D01*
X105651185Y-53951185D01*
X105730537Y-53854494D01*
X105789502Y-53744180D01*
X105825812Y-53624482D01*
X105838072Y-53500000D01*
X105835162Y-52918097D01*
X105840001Y-52922068D01*
X105840000Y-54485198D01*
X105257598Y-55067601D01*
X105200000Y-55061928D01*
X104000000Y-55061928D01*
X103875518Y-55074188D01*
X103755820Y-55110498D01*
X103645506Y-55169463D01*
X103548815Y-55248815D01*
X103469463Y-55345506D01*
X103410498Y-55455820D01*
X103400000Y-55490427D01*
X103389502Y-55455820D01*
X103330537Y-55345506D01*
X103251185Y-55248815D01*
X103154494Y-55169463D01*
X103044180Y-55110498D01*
X102924482Y-55074188D01*
X102800000Y-55061928D01*
X102485750Y-55065000D01*
X102327000Y-55223750D01*
X102327000Y-56473000D01*
X102347000Y-56473000D01*
X102347000Y-56727000D01*
X102327000Y-56727000D01*
X102327000Y-57976250D01*
X102485750Y-58135000D01*
X102800000Y-58138072D01*
X102924482Y-58125812D01*
X103044180Y-58089502D01*
X103154494Y-58030537D01*
X103251185Y-57951185D01*
X103330537Y-57854494D01*
X103389502Y-57744180D01*
X103400000Y-57709573D01*
X103410498Y-57744180D01*
X103469463Y-57854494D01*
X103548815Y-57951185D01*
X103645506Y-58030537D01*
X103755820Y-58089502D01*
X103875518Y-58125812D01*
X104000000Y-58138072D01*
X105200000Y-58138072D01*
X105324482Y-58125812D01*
X105444180Y-58089502D01*
X105554494Y-58030537D01*
X105651185Y-57951185D01*
X105730537Y-57854494D01*
X105789502Y-57744180D01*
X105825812Y-57624482D01*
X105838072Y-57500000D01*
X105838072Y-56636729D01*
X106914802Y-55560000D01*
X107108221Y-55560000D01*
X110694324Y-59146105D01*
X110650825Y-59150389D01*
X110600000Y-59165807D01*
X110549175Y-59150389D01*
X110412500Y-59136928D01*
X110287500Y-59136928D01*
X110150825Y-59150389D01*
X110100000Y-59165807D01*
X110049175Y-59150389D01*
X109912500Y-59136928D01*
X109787500Y-59136928D01*
X109650825Y-59150389D01*
X109519403Y-59190256D01*
X109398283Y-59254996D01*
X109292121Y-59342121D01*
X109204996Y-59448283D01*
X109140256Y-59569403D01*
X109100389Y-59700825D01*
X109086928Y-59837500D01*
X109086928Y-60787500D01*
X109096721Y-60886928D01*
X108885500Y-60886928D01*
X108885500Y-60548750D01*
X108726750Y-60390000D01*
X108487591Y-60387052D01*
X108438072Y-60390944D01*
X108438072Y-60200000D01*
X108425812Y-60075518D01*
X108389502Y-59955820D01*
X108330537Y-59845506D01*
X108251185Y-59748815D01*
X108154494Y-59669463D01*
X108044180Y-59610498D01*
X107924482Y-59574188D01*
X107800000Y-59561928D01*
X105800000Y-59561928D01*
X105675518Y-59574188D01*
X105555820Y-59610498D01*
X105445506Y-59669463D01*
X105348815Y-59748815D01*
X105269463Y-59845506D01*
X105210498Y-59955820D01*
X105174188Y-60075518D01*
X105161928Y-60200000D01*
X105161928Y-63245001D01*
X104356104Y-63245001D01*
X104319999Y-63241445D01*
X104283894Y-63245001D01*
X104175914Y-63255636D01*
X104037366Y-63297664D01*
X103909679Y-63365914D01*
X103797761Y-63457763D01*
X103774740Y-63485814D01*
X103531468Y-63729086D01*
X103531465Y-63729088D01*
X103429088Y-63831465D01*
X103408923Y-63861644D01*
X103385914Y-63889681D01*
X103368815Y-63921670D01*
X103348652Y-63951847D01*
X103334765Y-63985374D01*
X103317664Y-64017367D01*
X103307132Y-64052084D01*
X103293246Y-64085609D01*
X103286167Y-64121195D01*
X103275635Y-64155915D01*
X103272079Y-64192022D01*
X103265000Y-64227609D01*
X103265000Y-64263895D01*
X103261444Y-64300000D01*
X103265000Y-64336105D01*
X103265000Y-64372391D01*
X103272079Y-64407978D01*
X103275635Y-64444085D01*
X103286167Y-64478805D01*
X103293246Y-64514391D01*
X103307132Y-64547916D01*
X103317664Y-64582633D01*
X103334765Y-64614626D01*
X103348652Y-64648153D01*
X103368815Y-64678330D01*
X103385914Y-64710319D01*
X103408922Y-64738354D01*
X103429088Y-64768535D01*
X103454756Y-64794203D01*
X103477763Y-64822237D01*
X103505797Y-64845244D01*
X103531465Y-64870912D01*
X103561646Y-64891078D01*
X103589681Y-64914086D01*
X103621670Y-64931185D01*
X103651847Y-64951348D01*
X103685374Y-64965235D01*
X103717367Y-64982336D01*
X103752084Y-64992868D01*
X103785609Y-65006754D01*
X103821195Y-65013833D01*
X103855915Y-65024365D01*
X103892022Y-65027921D01*
X103927609Y-65035000D01*
X103963895Y-65035000D01*
X104000000Y-65038556D01*
X104036105Y-65035000D01*
X104072391Y-65035000D01*
X104107978Y-65027921D01*
X104144085Y-65024365D01*
X104178805Y-65013833D01*
X104214391Y-65006754D01*
X104247916Y-64992868D01*
X104282633Y-64982336D01*
X104314626Y-64965235D01*
X104348153Y-64951348D01*
X104378330Y-64931185D01*
X104410319Y-64914086D01*
X104438356Y-64891077D01*
X104468535Y-64870912D01*
X104570912Y-64768535D01*
X104570914Y-64768532D01*
X104624445Y-64715001D01*
X105589990Y-64715001D01*
X105589991Y-66829575D01*
X105586434Y-66865690D01*
X105600625Y-67009775D01*
X105635772Y-67125635D01*
X105642654Y-67148323D01*
X105710904Y-67276010D01*
X105802753Y-67387928D01*
X105830798Y-67410944D01*
X106026541Y-67606687D01*
X106049562Y-67634738D01*
X106161480Y-67726587D01*
X106289167Y-67794837D01*
X106395468Y-67827083D01*
X106427714Y-67836865D01*
X106571799Y-67851056D01*
X106607904Y-67847500D01*
X108450417Y-67847500D01*
X108448815Y-67848815D01*
X108369463Y-67945506D01*
X108310498Y-68055820D01*
X108274188Y-68175518D01*
X108261928Y-68300000D01*
X108261928Y-70300000D01*
X108264384Y-70324938D01*
X107145259Y-69205813D01*
X107122238Y-69177762D01*
X107010320Y-69085913D01*
X106882633Y-69017663D01*
X106744085Y-68975635D01*
X106636105Y-68965000D01*
X106600000Y-68961444D01*
X106563895Y-68965000D01*
X105099829Y-68965000D01*
X105096831Y-68959392D01*
X104992606Y-68832394D01*
X104865608Y-68728169D01*
X104720716Y-68650722D01*
X104563500Y-68603031D01*
X104400000Y-68586928D01*
X104000000Y-68586928D01*
X103836500Y-68603031D01*
X103679284Y-68650722D01*
X103534392Y-68728169D01*
X103432410Y-68811863D01*
X103401185Y-68773815D01*
X103304494Y-68694463D01*
X103194180Y-68635498D01*
X103074482Y-68599188D01*
X102950000Y-68586928D01*
X102835750Y-68590000D01*
X102677000Y-68748750D01*
X102677000Y-69573000D01*
X102697000Y-69573000D01*
X102697000Y-69827000D01*
X102677000Y-69827000D01*
X102677000Y-70651250D01*
X102835750Y-70810000D01*
X102950000Y-70813072D01*
X103074482Y-70800812D01*
X103194180Y-70764502D01*
X103304494Y-70705537D01*
X103401185Y-70626185D01*
X103432410Y-70588137D01*
X103534392Y-70671831D01*
X103679284Y-70749278D01*
X103836500Y-70796969D01*
X104000000Y-70813072D01*
X104400000Y-70813072D01*
X104563500Y-70796969D01*
X104720716Y-70749278D01*
X104865608Y-70671831D01*
X104992606Y-70567606D01*
X105096831Y-70440608D01*
X105099829Y-70435000D01*
X106295554Y-70435000D01*
X109529088Y-73668535D01*
X109631465Y-73770912D01*
X109661635Y-73791071D01*
X109689679Y-73814086D01*
X109710098Y-73825000D01*
X109622998Y-73825000D01*
X109622998Y-73919748D01*
X109528250Y-73825000D01*
X109423391Y-73836723D01*
X109304421Y-73875350D01*
X109195272Y-73936445D01*
X109100140Y-74017660D01*
X109022680Y-74115874D01*
X108965869Y-74227312D01*
X108941117Y-74315000D01*
X100685000Y-74315000D01*
X100685000Y-72575000D01*
X101611928Y-72575000D01*
X101624188Y-72699482D01*
X101660498Y-72819180D01*
X101719463Y-72929494D01*
X101798815Y-73026185D01*
X101895506Y-73105537D01*
X102005820Y-73164502D01*
X102125518Y-73200812D01*
X102250000Y-73213072D01*
X102364250Y-73210000D01*
X102523000Y-73051250D01*
X102523000Y-72227000D01*
X101773750Y-72227000D01*
X101615000Y-72385750D01*
X101611928Y-72575000D01*
X100685000Y-72575000D01*
X100685000Y-71625000D01*
X101611928Y-71625000D01*
X101615000Y-71814250D01*
X101773750Y-71973000D01*
X102523000Y-71973000D01*
X102523000Y-71148750D01*
X102777000Y-71148750D01*
X102777000Y-71973000D01*
X102797000Y-71973000D01*
X102797000Y-72227000D01*
X102777000Y-72227000D01*
X102777000Y-73051250D01*
X102935750Y-73210000D01*
X103050000Y-73213072D01*
X103174482Y-73200812D01*
X103294180Y-73164502D01*
X103404494Y-73105537D01*
X103501185Y-73026185D01*
X103532410Y-72988137D01*
X103634392Y-73071831D01*
X103779284Y-73149278D01*
X103936500Y-73196969D01*
X104100000Y-73213072D01*
X104500000Y-73213072D01*
X104663500Y-73196969D01*
X104820716Y-73149278D01*
X104965608Y-73071831D01*
X105092606Y-72967606D01*
X105196831Y-72840608D01*
X105199829Y-72835000D01*
X105872391Y-72835000D01*
X105907978Y-72827921D01*
X105944085Y-72824365D01*
X105978807Y-72813832D01*
X106014391Y-72806754D01*
X106047909Y-72792870D01*
X106082633Y-72782337D01*
X106114635Y-72765232D01*
X106148153Y-72751348D01*
X106178319Y-72731192D01*
X106210320Y-72714087D01*
X106238366Y-72691070D01*
X106268535Y-72670912D01*
X106294193Y-72645254D01*
X106322238Y-72622238D01*
X106345254Y-72594193D01*
X106370912Y-72568535D01*
X106391070Y-72538366D01*
X106414087Y-72510320D01*
X106431192Y-72478319D01*
X106451348Y-72448153D01*
X106465232Y-72414635D01*
X106482337Y-72382633D01*
X106492870Y-72347909D01*
X106506754Y-72314391D01*
X106513832Y-72278807D01*
X106524365Y-72244085D01*
X106527921Y-72207978D01*
X106535000Y-72172391D01*
X106535000Y-72136105D01*
X106538556Y-72100000D01*
X106535000Y-72063895D01*
X106535000Y-72027609D01*
X106527921Y-71992022D01*
X106524365Y-71955915D01*
X106513832Y-71921193D01*
X106506754Y-71885609D01*
X106492870Y-71852091D01*
X106482337Y-71817367D01*
X106465232Y-71785365D01*
X106451348Y-71751847D01*
X106431192Y-71721681D01*
X106414087Y-71689680D01*
X106391070Y-71661634D01*
X106370912Y-71631465D01*
X106345254Y-71605807D01*
X106322238Y-71577762D01*
X106294193Y-71554746D01*
X106268535Y-71529088D01*
X106238366Y-71508930D01*
X106210320Y-71485913D01*
X106178319Y-71468808D01*
X106148153Y-71448652D01*
X106114635Y-71434768D01*
X106082633Y-71417663D01*
X106047909Y-71407130D01*
X106014391Y-71393246D01*
X105978807Y-71386168D01*
X105944085Y-71375635D01*
X105907978Y-71372079D01*
X105872391Y-71365000D01*
X105199829Y-71365000D01*
X105196831Y-71359392D01*
X105092606Y-71232394D01*
X104965608Y-71128169D01*
X104820716Y-71050722D01*
X104663500Y-71003031D01*
X104500000Y-70986928D01*
X104100000Y-70986928D01*
X103936500Y-71003031D01*
X103779284Y-71050722D01*
X103634392Y-71128169D01*
X103532410Y-71211863D01*
X103501185Y-71173815D01*
X103404494Y-71094463D01*
X103294180Y-71035498D01*
X103174482Y-70999188D01*
X103050000Y-70986928D01*
X102935750Y-70990000D01*
X102777000Y-71148750D01*
X102523000Y-71148750D01*
X102364250Y-70990000D01*
X102250000Y-70986928D01*
X102125518Y-70999188D01*
X102005820Y-71035498D01*
X101895506Y-71094463D01*
X101798815Y-71173815D01*
X101719463Y-71270506D01*
X101660498Y-71380820D01*
X101624188Y-71500518D01*
X101611928Y-71625000D01*
X100685000Y-71625000D01*
X100685000Y-70175000D01*
X101511928Y-70175000D01*
X101524188Y-70299482D01*
X101560498Y-70419180D01*
X101619463Y-70529494D01*
X101698815Y-70626185D01*
X101795506Y-70705537D01*
X101905820Y-70764502D01*
X102025518Y-70800812D01*
X102150000Y-70813072D01*
X102264250Y-70810000D01*
X102423000Y-70651250D01*
X102423000Y-69827000D01*
X101673750Y-69827000D01*
X101515000Y-69985750D01*
X101511928Y-70175000D01*
X100685000Y-70175000D01*
X100685000Y-69225000D01*
X101511928Y-69225000D01*
X101515000Y-69414250D01*
X101673750Y-69573000D01*
X102423000Y-69573000D01*
X102423000Y-68748750D01*
X102264250Y-68590000D01*
X102150000Y-68586928D01*
X102025518Y-68599188D01*
X101905820Y-68635498D01*
X101795506Y-68694463D01*
X101698815Y-68773815D01*
X101619463Y-68870506D01*
X101560498Y-68980820D01*
X101524188Y-69100518D01*
X101511928Y-69225000D01*
X100685000Y-69225000D01*
X100685000Y-62532687D01*
X100789716Y-62660284D01*
X100920503Y-62767618D01*
X101069717Y-62847375D01*
X101231623Y-62896488D01*
X101400000Y-62913072D01*
X101850000Y-62913072D01*
X102018377Y-62896488D01*
X102180283Y-62847375D01*
X102326351Y-62769300D01*
X102370506Y-62805537D01*
X102480820Y-62864502D01*
X102600518Y-62900812D01*
X102725000Y-62913072D01*
X102889250Y-62910000D01*
X103048000Y-62751250D01*
X103048000Y-61927000D01*
X103302000Y-61927000D01*
X103302000Y-62751250D01*
X103460750Y-62910000D01*
X103625000Y-62913072D01*
X103749482Y-62900812D01*
X103869180Y-62864502D01*
X103979494Y-62805537D01*
X104076185Y-62726185D01*
X104155537Y-62629494D01*
X104214502Y-62519180D01*
X104250812Y-62399482D01*
X104263072Y-62275000D01*
X104260000Y-62085750D01*
X104101250Y-61927000D01*
X103302000Y-61927000D01*
X103048000Y-61927000D01*
X103028000Y-61927000D01*
X103028000Y-61673000D01*
X103048000Y-61673000D01*
X103048000Y-60848750D01*
X103302000Y-60848750D01*
X103302000Y-61673000D01*
X104101250Y-61673000D01*
X104260000Y-61514250D01*
X104263072Y-61325000D01*
X104250812Y-61200518D01*
X104214502Y-61080820D01*
X104155537Y-60970506D01*
X104076185Y-60873815D01*
X103979494Y-60794463D01*
X103869180Y-60735498D01*
X103749482Y-60699188D01*
X103625000Y-60686928D01*
X103460750Y-60690000D01*
X103302000Y-60848750D01*
X103048000Y-60848750D01*
X102889250Y-60690000D01*
X102725000Y-60686928D01*
X102600518Y-60699188D01*
X102480820Y-60735498D01*
X102370506Y-60794463D01*
X102326351Y-60830700D01*
X102180283Y-60752625D01*
X102018377Y-60703512D01*
X101934999Y-60695300D01*
X101934999Y-58114251D01*
X102073000Y-57976250D01*
X102073000Y-56727000D01*
X102053000Y-56727000D01*
X102053000Y-56473000D01*
X102073000Y-56473000D01*
X102073000Y-55223750D01*
X101934999Y-55085749D01*
X101934999Y-54138072D01*
X102800000Y-54138072D01*
X102924482Y-54125812D01*
X103044180Y-54089502D01*
X103154494Y-54030537D01*
X103251185Y-53951185D01*
X103330537Y-53854494D01*
X103389502Y-53744180D01*
X103400000Y-53709573D01*
X103410498Y-53744180D01*
X103469463Y-53854494D01*
X103548815Y-53951185D01*
X103645506Y-54030537D01*
X103755820Y-54089502D01*
X103875518Y-54125812D01*
X104000000Y-54138072D01*
X104314250Y-54135000D01*
X104473000Y-53976250D01*
X104473000Y-52727000D01*
X104453000Y-52727000D01*
X104453000Y-52473000D01*
X104473000Y-52473000D01*
X104473000Y-52453000D01*
X104727000Y-52453000D01*
X104727000Y-52473000D01*
G37*
%TD.AperFunction*%
D22*
X124315000Y-74315000D02*
X116908072Y-74315000D01*
X116908072Y-73545000D01*
X116895812Y-73420518D01*
X116859502Y-73300820D01*
X116800537Y-73190506D01*
X116721185Y-73093815D01*
X116624494Y-73014463D01*
X116514180Y-72955498D01*
X116394482Y-72919188D01*
X116270000Y-72906928D01*
X115570000Y-72906928D01*
X115445518Y-72919188D01*
X115325820Y-72955498D01*
X115215506Y-73014463D01*
X115118815Y-73093815D01*
X115039463Y-73190506D01*
X114980498Y-73300820D01*
X114944188Y-73420518D01*
X114931928Y-73545000D01*
X114931928Y-73821928D01*
X114560000Y-73821928D01*
X114500000Y-73827837D01*
X114440000Y-73821928D01*
X114431357Y-73821928D01*
X114431192Y-73821681D01*
X114414087Y-73789680D01*
X114391071Y-73761635D01*
X114370912Y-73731465D01*
X114345250Y-73705803D01*
X114322237Y-73677762D01*
X114294198Y-73654751D01*
X114268535Y-73629088D01*
X114238361Y-73608927D01*
X114210319Y-73585913D01*
X114178323Y-73568811D01*
X114148153Y-73548652D01*
X114114631Y-73534767D01*
X114082632Y-73517663D01*
X114047912Y-73507131D01*
X114014391Y-73493246D01*
X113985000Y-73487400D01*
X113985000Y-73286105D01*
X113988556Y-73250000D01*
X113983333Y-73196969D01*
X113983172Y-73195332D01*
X114018592Y-73191843D01*
X114056928Y-73190229D01*
X114119283Y-73175074D01*
X114182083Y-73161663D01*
X114226348Y-73142596D01*
X114233179Y-73140206D01*
X114279677Y-73127513D01*
X114337120Y-73098850D01*
X114395334Y-73071815D01*
X114434248Y-73043376D01*
X114440371Y-73039528D01*
X114482875Y-73016809D01*
X114532501Y-72976081D01*
X114583248Y-72936763D01*
X114614857Y-72900378D01*
X114619968Y-72895267D01*
X114656345Y-72863665D01*
X114695655Y-72812929D01*
X114736391Y-72763292D01*
X114759110Y-72720789D01*
X114762960Y-72714662D01*
X114791396Y-72675752D01*
X114798712Y-72660000D01*
X115587360Y-72660000D01*
X115624682Y-72663676D01*
X115662004Y-72660000D01*
X115662015Y-72660000D01*
X115773668Y-72649003D01*
X115916929Y-72605546D01*
X116048958Y-72534974D01*
X116164683Y-72440001D01*
X116188486Y-72410997D01*
X116214493Y-72384990D01*
X116230789Y-72384990D01*
X116241008Y-72389736D01*
X116244461Y-72392114D01*
X116267475Y-72402028D01*
X116273519Y-72404835D01*
X116279504Y-72407821D01*
X116301589Y-72419626D01*
X116305597Y-72420842D01*
X116330954Y-72433495D01*
X116357082Y-72440628D01*
X116381954Y-72451342D01*
X116444750Y-72464753D01*
X116448842Y-72465747D01*
X116476024Y-72473993D01*
X116487359Y-72475109D01*
X116507122Y-72479913D01*
X116555269Y-72481941D01*
X116576996Y-72484389D01*
X116582337Y-72484464D01*
X116587677Y-72484990D01*
X116619749Y-72484990D01*
X116631652Y-72485157D01*
X116656696Y-72486212D01*
X116660840Y-72485568D01*
X116689177Y-72485966D01*
X116694472Y-72484990D01*
X117055555Y-72484990D01*
X117060850Y-72485966D01*
X117089180Y-72485568D01*
X117093323Y-72486212D01*
X117118362Y-72485158D01*
X117130278Y-72484990D01*
X117162343Y-72484990D01*
X117167681Y-72484464D01*
X117173031Y-72484389D01*
X117194759Y-72481940D01*
X117242896Y-72479913D01*
X117262658Y-72475110D01*
X117273996Y-72473993D01*
X117301184Y-72465746D01*
X117305263Y-72464754D01*
X117368072Y-72451340D01*
X117392943Y-72440626D01*
X117419064Y-72433495D01*
X117444415Y-72420845D01*
X117448430Y-72419627D01*
X117470550Y-72407804D01*
X117476494Y-72404838D01*
X117482549Y-72402025D01*
X117505564Y-72392111D01*
X117509016Y-72389734D01*
X117519230Y-72384990D01*
X118167600Y-72384990D01*
X118165000Y-72398061D01*
X118165000Y-72601939D01*
X118204774Y-72801898D01*
X118282795Y-72990256D01*
X118396063Y-73159774D01*
X118540226Y-73303937D01*
X118709744Y-73417205D01*
X118898102Y-73495226D01*
X119098061Y-73535000D01*
X119301939Y-73535000D01*
X119501898Y-73495226D01*
X119690256Y-73417205D01*
X119859774Y-73303937D01*
X120003937Y-73159774D01*
X120117205Y-72990256D01*
X120195226Y-72801898D01*
X120200845Y-72773649D01*
X120363204Y-72936009D01*
X120386998Y-72965002D01*
X120415991Y-72988796D01*
X120415995Y-72988800D01*
X120462806Y-73027216D01*
X120502723Y-73059975D01*
X120634752Y-73130547D01*
X120778013Y-73174004D01*
X120889666Y-73185001D01*
X120889675Y-73185001D01*
X120926998Y-73188677D01*
X120964321Y-73185001D01*
X121562677Y-73185001D01*
X121599999Y-73188677D01*
X121637321Y-73185001D01*
X121637332Y-73185001D01*
X121748985Y-73174004D01*
X121892246Y-73130547D01*
X122024275Y-73059975D01*
X122140000Y-72965002D01*
X122163802Y-72935999D01*
X122364801Y-72735000D01*
X122426939Y-72735000D01*
X122626898Y-72695226D01*
X122815256Y-72617205D01*
X122984774Y-72503937D01*
X123128937Y-72359774D01*
X123242205Y-72190256D01*
X123320226Y-72001898D01*
X123360000Y-71801939D01*
X123360000Y-71598061D01*
X123320226Y-71398102D01*
X123242205Y-71209744D01*
X123128937Y-71040226D01*
X122984774Y-70896063D01*
X122970872Y-70886774D01*
X123669197Y-70188450D01*
X123697237Y-70165438D01*
X123720250Y-70137397D01*
X123720253Y-70137394D01*
X123789087Y-70053520D01*
X123857337Y-69925834D01*
X123899365Y-69787285D01*
X123913556Y-69643200D01*
X123910000Y-69607095D01*
X123910000Y-68336568D01*
X123919202Y-68327366D01*
X123947247Y-68304350D01*
X124039097Y-68192432D01*
X124107347Y-68064745D01*
X124149375Y-67926197D01*
X124160010Y-67818217D01*
X124160010Y-67818216D01*
X124163566Y-67782112D01*
X124160010Y-67746007D01*
X124160010Y-66853993D01*
X124163566Y-66817888D01*
X124149375Y-66673803D01*
X124107347Y-66535255D01*
X124088503Y-66500000D01*
X124039097Y-66407568D01*
X123947248Y-66295650D01*
X123919197Y-66272629D01*
X123911041Y-66264473D01*
X123910000Y-66253904D01*
X123910000Y-66253896D01*
X123899365Y-66145916D01*
X123857337Y-66007367D01*
X123789087Y-65879680D01*
X123763072Y-65847981D01*
X123763072Y-65565000D01*
X123746969Y-65401500D01*
X123699278Y-65244284D01*
X123621831Y-65099392D01*
X123517606Y-64972394D01*
X123390608Y-64868169D01*
X123245716Y-64790722D01*
X123088500Y-64743031D01*
X122925000Y-64726928D01*
X122525000Y-64726928D01*
X122361500Y-64743031D01*
X122204284Y-64790722D01*
X122059392Y-64868169D01*
X121932394Y-64972394D01*
X121900000Y-65011866D01*
X121867606Y-64972394D01*
X121740608Y-64868169D01*
X121595716Y-64790722D01*
X121438500Y-64743031D01*
X121275000Y-64726928D01*
X120875000Y-64726928D01*
X120711500Y-64743031D01*
X120554284Y-64790722D01*
X120409392Y-64868169D01*
X120282394Y-64972394D01*
X120178169Y-65099392D01*
X120100722Y-65244284D01*
X120053031Y-65401500D01*
X120036928Y-65565000D01*
X120036928Y-65579281D01*
X118942647Y-64485001D01*
X120692677Y-64485001D01*
X120729999Y-64488677D01*
X120767321Y-64485001D01*
X120767332Y-64485001D01*
X120878985Y-64474004D01*
X120980956Y-64443072D01*
X121350000Y-64443072D01*
X121518377Y-64426488D01*
X121680283Y-64377375D01*
X121826351Y-64299300D01*
X121870506Y-64335537D01*
X121980820Y-64394502D01*
X122100518Y-64430812D01*
X122225000Y-64443072D01*
X122389250Y-64440000D01*
X122548000Y-64281250D01*
X122548000Y-63457000D01*
X122802000Y-63457000D01*
X122802000Y-64281250D01*
X122960750Y-64440000D01*
X123125000Y-64443072D01*
X123249482Y-64430812D01*
X123369180Y-64394502D01*
X123479494Y-64335537D01*
X123576185Y-64256185D01*
X123655537Y-64159494D01*
X123714502Y-64049180D01*
X123750812Y-63929482D01*
X123763072Y-63805000D01*
X123760000Y-63615750D01*
X123601250Y-63457000D01*
X122802000Y-63457000D01*
X122548000Y-63457000D01*
X122528000Y-63457000D01*
X122528000Y-63203000D01*
X122548000Y-63203000D01*
X122548000Y-62378750D01*
X122802000Y-62378750D01*
X122802000Y-63203000D01*
X123601250Y-63203000D01*
X123760000Y-63044250D01*
X123763072Y-62855000D01*
X123750812Y-62730518D01*
X123714502Y-62610820D01*
X123655537Y-62500506D01*
X123576185Y-62403815D01*
X123479494Y-62324463D01*
X123369180Y-62265498D01*
X123249482Y-62229188D01*
X123125000Y-62216928D01*
X122960750Y-62220000D01*
X122802000Y-62378750D01*
X122548000Y-62378750D01*
X122389250Y-62220000D01*
X122225000Y-62216928D01*
X122100518Y-62229188D01*
X121980820Y-62265498D01*
X121870506Y-62324463D01*
X121826351Y-62360700D01*
X121680283Y-62282625D01*
X121518377Y-62233512D01*
X121350000Y-62216928D01*
X120999383Y-62216928D01*
X121017205Y-62190256D01*
X121072119Y-62057682D01*
X121316729Y-61813072D01*
X121580000Y-61813072D01*
X121748377Y-61796488D01*
X121910283Y-61747375D01*
X122056351Y-61669300D01*
X122100506Y-61705537D01*
X122210820Y-61764502D01*
X122330518Y-61800812D01*
X122455000Y-61813072D01*
X122619250Y-61810000D01*
X122778000Y-61651250D01*
X122778000Y-60827000D01*
X123032000Y-60827000D01*
X123032000Y-61651250D01*
X123190750Y-61810000D01*
X123355000Y-61813072D01*
X123479482Y-61800812D01*
X123599180Y-61764502D01*
X123709494Y-61705537D01*
X123806185Y-61626185D01*
X123885537Y-61529494D01*
X123944502Y-61419180D01*
X123980812Y-61299482D01*
X123993072Y-61175000D01*
X123990000Y-60985750D01*
X123831250Y-60827000D01*
X123032000Y-60827000D01*
X122778000Y-60827000D01*
X122758000Y-60827000D01*
X122758000Y-60573000D01*
X122778000Y-60573000D01*
X122778000Y-59748750D01*
X123032000Y-59748750D01*
X123032000Y-60573000D01*
X123831250Y-60573000D01*
X123990000Y-60414250D01*
X123993072Y-60225000D01*
X123980812Y-60100518D01*
X123944502Y-59980820D01*
X123885537Y-59870506D01*
X123806185Y-59773815D01*
X123709494Y-59694463D01*
X123599180Y-59635498D01*
X123479482Y-59599188D01*
X123355000Y-59586928D01*
X123190750Y-59590000D01*
X123032000Y-59748750D01*
X122778000Y-59748750D01*
X122619250Y-59590000D01*
X122455000Y-59586928D01*
X122330518Y-59599188D01*
X122210820Y-59635498D01*
X122115000Y-59686716D01*
X122115000Y-59203284D01*
X122210820Y-59254502D01*
X122330518Y-59290812D01*
X122455000Y-59303072D01*
X122619250Y-59300000D01*
X122778000Y-59141250D01*
X122778000Y-58317000D01*
X123032000Y-58317000D01*
X123032000Y-59141250D01*
X123190750Y-59300000D01*
X123355000Y-59303072D01*
X123479482Y-59290812D01*
X123599180Y-59254502D01*
X123709494Y-59195537D01*
X123806185Y-59116185D01*
X123885537Y-59019494D01*
X123944502Y-58909180D01*
X123980812Y-58789482D01*
X123993072Y-58665000D01*
X123990000Y-58475750D01*
X123831250Y-58317000D01*
X123032000Y-58317000D01*
X122778000Y-58317000D01*
X122758000Y-58317000D01*
X122758000Y-58063000D01*
X122778000Y-58063000D01*
X122778000Y-57238750D01*
X123032000Y-57238750D01*
X123032000Y-58063000D01*
X123831250Y-58063000D01*
X123990000Y-57904250D01*
X123993072Y-57715000D01*
X123980812Y-57590518D01*
X123944502Y-57470820D01*
X123885537Y-57360506D01*
X123806185Y-57263815D01*
X123709494Y-57184463D01*
X123599180Y-57125498D01*
X123479482Y-57089188D01*
X123355000Y-57076928D01*
X123190750Y-57080000D01*
X123032000Y-57238750D01*
X122778000Y-57238750D01*
X122619250Y-57080000D01*
X122455000Y-57076928D01*
X122330518Y-57089188D01*
X122210820Y-57125498D01*
X122115000Y-57176716D01*
X122115000Y-56693284D01*
X122210820Y-56744502D01*
X122330518Y-56780812D01*
X122455000Y-56793072D01*
X122619250Y-56790000D01*
X122778000Y-56631250D01*
X122778000Y-55807000D01*
X123032000Y-55807000D01*
X123032000Y-56631250D01*
X123190750Y-56790000D01*
X123355000Y-56793072D01*
X123479482Y-56780812D01*
X123599180Y-56744502D01*
X123709494Y-56685537D01*
X123806185Y-56606185D01*
X123885537Y-56509494D01*
X123944502Y-56399180D01*
X123980812Y-56279482D01*
X123993072Y-56155000D01*
X123990000Y-55965750D01*
X123831250Y-55807000D01*
X123032000Y-55807000D01*
X122778000Y-55807000D01*
X122758000Y-55807000D01*
X122758000Y-55553000D01*
X122778000Y-55553000D01*
X122778000Y-54728750D01*
X123032000Y-54728750D01*
X123032000Y-55553000D01*
X123831250Y-55553000D01*
X123990000Y-55394250D01*
X123993072Y-55205000D01*
X123980812Y-55080518D01*
X123944502Y-54960820D01*
X123885537Y-54850506D01*
X123806185Y-54753815D01*
X123709494Y-54674463D01*
X123599180Y-54615498D01*
X123479482Y-54579188D01*
X123355000Y-54566928D01*
X123190750Y-54570000D01*
X123032000Y-54728750D01*
X122778000Y-54728750D01*
X122619250Y-54570000D01*
X122455000Y-54566928D01*
X122330518Y-54579188D01*
X122210820Y-54615498D01*
X122110000Y-54669388D01*
X122110000Y-53413284D01*
X122205820Y-53464502D01*
X122325518Y-53500812D01*
X122450000Y-53513072D01*
X122614250Y-53510000D01*
X122773000Y-53351250D01*
X122773000Y-52527000D01*
X123027000Y-52527000D01*
X123027000Y-53351250D01*
X123185750Y-53510000D01*
X123350000Y-53513072D01*
X123474482Y-53500812D01*
X123594180Y-53464502D01*
X123704494Y-53405537D01*
X123801185Y-53326185D01*
X123880537Y-53229494D01*
X123939502Y-53119180D01*
X123975812Y-52999482D01*
X123988072Y-52875000D01*
X123985000Y-52685750D01*
X123826250Y-52527000D01*
X123027000Y-52527000D01*
X122773000Y-52527000D01*
X122753000Y-52527000D01*
X122753000Y-52273000D01*
X122773000Y-52273000D01*
X122773000Y-51448750D01*
X123027000Y-51448750D01*
X123027000Y-52273000D01*
X123826250Y-52273000D01*
X123985000Y-52114250D01*
X123988072Y-51925000D01*
X123975812Y-51800518D01*
X123939502Y-51680820D01*
X123880537Y-51570506D01*
X123801185Y-51473815D01*
X123704494Y-51394463D01*
X123594180Y-51335498D01*
X123474482Y-51299188D01*
X123350000Y-51286928D01*
X123185750Y-51290000D01*
X123027000Y-51448750D01*
X122773000Y-51448750D01*
X122614250Y-51290000D01*
X122450000Y-51286928D01*
X122325518Y-51299188D01*
X122205820Y-51335498D01*
X122095506Y-51394463D01*
X122051351Y-51430700D01*
X121905283Y-51352625D01*
X121743377Y-51303512D01*
X121575000Y-51286928D01*
X121125000Y-51286928D01*
X120956623Y-51303512D01*
X120794717Y-51352625D01*
X120645503Y-51432382D01*
X120514716Y-51539716D01*
X120432415Y-51640000D01*
X115376320Y-51640000D01*
X115338997Y-51636324D01*
X115301674Y-51640000D01*
X115301665Y-51640000D01*
X115190012Y-51650997D01*
X115046751Y-51694454D01*
X114914722Y-51765026D01*
X114798997Y-51859999D01*
X114775199Y-51888997D01*
X113062015Y-53602182D01*
X113033011Y-53625985D01*
X112977883Y-53693160D01*
X112938038Y-53741710D01*
X112883260Y-53844192D01*
X112867466Y-53873740D01*
X112824009Y-54017001D01*
X112813012Y-54128654D01*
X112813012Y-54128664D01*
X112809336Y-54165986D01*
X112813012Y-54203309D01*
X112813012Y-54335376D01*
X109162635Y-50685000D01*
X124315001Y-50685000D01*
X124315000Y-74315000D01*
%TA.AperFunction,Conductor*%
D23*
G36*
X124315000Y-74315000D02*
G01*
X116908072Y-74315000D01*
X116908072Y-73545000D01*
X116895812Y-73420518D01*
X116859502Y-73300820D01*
X116800537Y-73190506D01*
X116721185Y-73093815D01*
X116624494Y-73014463D01*
X116514180Y-72955498D01*
X116394482Y-72919188D01*
X116270000Y-72906928D01*
X115570000Y-72906928D01*
X115445518Y-72919188D01*
X115325820Y-72955498D01*
X115215506Y-73014463D01*
X115118815Y-73093815D01*
X115039463Y-73190506D01*
X114980498Y-73300820D01*
X114944188Y-73420518D01*
X114931928Y-73545000D01*
X114931928Y-73821928D01*
X114560000Y-73821928D01*
X114500000Y-73827837D01*
X114440000Y-73821928D01*
X114431357Y-73821928D01*
X114431192Y-73821681D01*
X114414087Y-73789680D01*
X114391071Y-73761635D01*
X114370912Y-73731465D01*
X114345250Y-73705803D01*
X114322237Y-73677762D01*
X114294198Y-73654751D01*
X114268535Y-73629088D01*
X114238361Y-73608927D01*
X114210319Y-73585913D01*
X114178323Y-73568811D01*
X114148153Y-73548652D01*
X114114631Y-73534767D01*
X114082632Y-73517663D01*
X114047912Y-73507131D01*
X114014391Y-73493246D01*
X113985000Y-73487400D01*
X113985000Y-73286105D01*
X113988556Y-73250000D01*
X113983333Y-73196969D01*
X113983172Y-73195332D01*
X114018592Y-73191843D01*
X114056928Y-73190229D01*
X114119283Y-73175074D01*
X114182083Y-73161663D01*
X114226348Y-73142596D01*
X114233179Y-73140206D01*
X114279677Y-73127513D01*
X114337120Y-73098850D01*
X114395334Y-73071815D01*
X114434248Y-73043376D01*
X114440371Y-73039528D01*
X114482875Y-73016809D01*
X114532501Y-72976081D01*
X114583248Y-72936763D01*
X114614857Y-72900378D01*
X114619968Y-72895267D01*
X114656345Y-72863665D01*
X114695655Y-72812929D01*
X114736391Y-72763292D01*
X114759110Y-72720789D01*
X114762960Y-72714662D01*
X114791396Y-72675752D01*
X114798712Y-72660000D01*
X115587360Y-72660000D01*
X115624682Y-72663676D01*
X115662004Y-72660000D01*
X115662015Y-72660000D01*
X115773668Y-72649003D01*
X115916929Y-72605546D01*
X116048958Y-72534974D01*
X116164683Y-72440001D01*
X116188486Y-72410997D01*
X116214493Y-72384990D01*
X116230789Y-72384990D01*
X116241008Y-72389736D01*
X116244461Y-72392114D01*
X116267475Y-72402028D01*
X116273519Y-72404835D01*
X116279504Y-72407821D01*
X116301589Y-72419626D01*
X116305597Y-72420842D01*
X116330954Y-72433495D01*
X116357082Y-72440628D01*
X116381954Y-72451342D01*
X116444750Y-72464753D01*
X116448842Y-72465747D01*
X116476024Y-72473993D01*
X116487359Y-72475109D01*
X116507122Y-72479913D01*
X116555269Y-72481941D01*
X116576996Y-72484389D01*
X116582337Y-72484464D01*
X116587677Y-72484990D01*
X116619749Y-72484990D01*
X116631652Y-72485157D01*
X116656696Y-72486212D01*
X116660840Y-72485568D01*
X116689177Y-72485966D01*
X116694472Y-72484990D01*
X117055555Y-72484990D01*
X117060850Y-72485966D01*
X117089180Y-72485568D01*
X117093323Y-72486212D01*
X117118362Y-72485158D01*
X117130278Y-72484990D01*
X117162343Y-72484990D01*
X117167681Y-72484464D01*
X117173031Y-72484389D01*
X117194759Y-72481940D01*
X117242896Y-72479913D01*
X117262658Y-72475110D01*
X117273996Y-72473993D01*
X117301184Y-72465746D01*
X117305263Y-72464754D01*
X117368072Y-72451340D01*
X117392943Y-72440626D01*
X117419064Y-72433495D01*
X117444415Y-72420845D01*
X117448430Y-72419627D01*
X117470550Y-72407804D01*
X117476494Y-72404838D01*
X117482549Y-72402025D01*
X117505564Y-72392111D01*
X117509016Y-72389734D01*
X117519230Y-72384990D01*
X118167600Y-72384990D01*
X118165000Y-72398061D01*
X118165000Y-72601939D01*
X118204774Y-72801898D01*
X118282795Y-72990256D01*
X118396063Y-73159774D01*
X118540226Y-73303937D01*
X118709744Y-73417205D01*
X118898102Y-73495226D01*
X119098061Y-73535000D01*
X119301939Y-73535000D01*
X119501898Y-73495226D01*
X119690256Y-73417205D01*
X119859774Y-73303937D01*
X120003937Y-73159774D01*
X120117205Y-72990256D01*
X120195226Y-72801898D01*
X120200845Y-72773649D01*
X120363204Y-72936009D01*
X120386998Y-72965002D01*
X120415991Y-72988796D01*
X120415995Y-72988800D01*
X120462806Y-73027216D01*
X120502723Y-73059975D01*
X120634752Y-73130547D01*
X120778013Y-73174004D01*
X120889666Y-73185001D01*
X120889675Y-73185001D01*
X120926998Y-73188677D01*
X120964321Y-73185001D01*
X121562677Y-73185001D01*
X121599999Y-73188677D01*
X121637321Y-73185001D01*
X121637332Y-73185001D01*
X121748985Y-73174004D01*
X121892246Y-73130547D01*
X122024275Y-73059975D01*
X122140000Y-72965002D01*
X122163802Y-72935999D01*
X122364801Y-72735000D01*
X122426939Y-72735000D01*
X122626898Y-72695226D01*
X122815256Y-72617205D01*
X122984774Y-72503937D01*
X123128937Y-72359774D01*
X123242205Y-72190256D01*
X123320226Y-72001898D01*
X123360000Y-71801939D01*
X123360000Y-71598061D01*
X123320226Y-71398102D01*
X123242205Y-71209744D01*
X123128937Y-71040226D01*
X122984774Y-70896063D01*
X122970872Y-70886774D01*
X123669197Y-70188450D01*
X123697237Y-70165438D01*
X123720250Y-70137397D01*
X123720253Y-70137394D01*
X123789087Y-70053520D01*
X123857337Y-69925834D01*
X123899365Y-69787285D01*
X123913556Y-69643200D01*
X123910000Y-69607095D01*
X123910000Y-68336568D01*
X123919202Y-68327366D01*
X123947247Y-68304350D01*
X124039097Y-68192432D01*
X124107347Y-68064745D01*
X124149375Y-67926197D01*
X124160010Y-67818217D01*
X124160010Y-67818216D01*
X124163566Y-67782112D01*
X124160010Y-67746007D01*
X124160010Y-66853993D01*
X124163566Y-66817888D01*
X124149375Y-66673803D01*
X124107347Y-66535255D01*
X124088503Y-66500000D01*
X124039097Y-66407568D01*
X123947248Y-66295650D01*
X123919197Y-66272629D01*
X123911041Y-66264473D01*
X123910000Y-66253904D01*
X123910000Y-66253896D01*
X123899365Y-66145916D01*
X123857337Y-66007367D01*
X123789087Y-65879680D01*
X123763072Y-65847981D01*
X123763072Y-65565000D01*
X123746969Y-65401500D01*
X123699278Y-65244284D01*
X123621831Y-65099392D01*
X123517606Y-64972394D01*
X123390608Y-64868169D01*
X123245716Y-64790722D01*
X123088500Y-64743031D01*
X122925000Y-64726928D01*
X122525000Y-64726928D01*
X122361500Y-64743031D01*
X122204284Y-64790722D01*
X122059392Y-64868169D01*
X121932394Y-64972394D01*
X121900000Y-65011866D01*
X121867606Y-64972394D01*
X121740608Y-64868169D01*
X121595716Y-64790722D01*
X121438500Y-64743031D01*
X121275000Y-64726928D01*
X120875000Y-64726928D01*
X120711500Y-64743031D01*
X120554284Y-64790722D01*
X120409392Y-64868169D01*
X120282394Y-64972394D01*
X120178169Y-65099392D01*
X120100722Y-65244284D01*
X120053031Y-65401500D01*
X120036928Y-65565000D01*
X120036928Y-65579281D01*
X118942647Y-64485001D01*
X120692677Y-64485001D01*
X120729999Y-64488677D01*
X120767321Y-64485001D01*
X120767332Y-64485001D01*
X120878985Y-64474004D01*
X120980956Y-64443072D01*
X121350000Y-64443072D01*
X121518377Y-64426488D01*
X121680283Y-64377375D01*
X121826351Y-64299300D01*
X121870506Y-64335537D01*
X121980820Y-64394502D01*
X122100518Y-64430812D01*
X122225000Y-64443072D01*
X122389250Y-64440000D01*
X122548000Y-64281250D01*
X122548000Y-63457000D01*
X122802000Y-63457000D01*
X122802000Y-64281250D01*
X122960750Y-64440000D01*
X123125000Y-64443072D01*
X123249482Y-64430812D01*
X123369180Y-64394502D01*
X123479494Y-64335537D01*
X123576185Y-64256185D01*
X123655537Y-64159494D01*
X123714502Y-64049180D01*
X123750812Y-63929482D01*
X123763072Y-63805000D01*
X123760000Y-63615750D01*
X123601250Y-63457000D01*
X122802000Y-63457000D01*
X122548000Y-63457000D01*
X122528000Y-63457000D01*
X122528000Y-63203000D01*
X122548000Y-63203000D01*
X122548000Y-62378750D01*
X122802000Y-62378750D01*
X122802000Y-63203000D01*
X123601250Y-63203000D01*
X123760000Y-63044250D01*
X123763072Y-62855000D01*
X123750812Y-62730518D01*
X123714502Y-62610820D01*
X123655537Y-62500506D01*
X123576185Y-62403815D01*
X123479494Y-62324463D01*
X123369180Y-62265498D01*
X123249482Y-62229188D01*
X123125000Y-62216928D01*
X122960750Y-62220000D01*
X122802000Y-62378750D01*
X122548000Y-62378750D01*
X122389250Y-62220000D01*
X122225000Y-62216928D01*
X122100518Y-62229188D01*
X121980820Y-62265498D01*
X121870506Y-62324463D01*
X121826351Y-62360700D01*
X121680283Y-62282625D01*
X121518377Y-62233512D01*
X121350000Y-62216928D01*
X120999383Y-62216928D01*
X121017205Y-62190256D01*
X121072119Y-62057682D01*
X121316729Y-61813072D01*
X121580000Y-61813072D01*
X121748377Y-61796488D01*
X121910283Y-61747375D01*
X122056351Y-61669300D01*
X122100506Y-61705537D01*
X122210820Y-61764502D01*
X122330518Y-61800812D01*
X122455000Y-61813072D01*
X122619250Y-61810000D01*
X122778000Y-61651250D01*
X122778000Y-60827000D01*
X123032000Y-60827000D01*
X123032000Y-61651250D01*
X123190750Y-61810000D01*
X123355000Y-61813072D01*
X123479482Y-61800812D01*
X123599180Y-61764502D01*
X123709494Y-61705537D01*
X123806185Y-61626185D01*
X123885537Y-61529494D01*
X123944502Y-61419180D01*
X123980812Y-61299482D01*
X123993072Y-61175000D01*
X123990000Y-60985750D01*
X123831250Y-60827000D01*
X123032000Y-60827000D01*
X122778000Y-60827000D01*
X122758000Y-60827000D01*
X122758000Y-60573000D01*
X122778000Y-60573000D01*
X122778000Y-59748750D01*
X123032000Y-59748750D01*
X123032000Y-60573000D01*
X123831250Y-60573000D01*
X123990000Y-60414250D01*
X123993072Y-60225000D01*
X123980812Y-60100518D01*
X123944502Y-59980820D01*
X123885537Y-59870506D01*
X123806185Y-59773815D01*
X123709494Y-59694463D01*
X123599180Y-59635498D01*
X123479482Y-59599188D01*
X123355000Y-59586928D01*
X123190750Y-59590000D01*
X123032000Y-59748750D01*
X122778000Y-59748750D01*
X122619250Y-59590000D01*
X122455000Y-59586928D01*
X122330518Y-59599188D01*
X122210820Y-59635498D01*
X122115000Y-59686716D01*
X122115000Y-59203284D01*
X122210820Y-59254502D01*
X122330518Y-59290812D01*
X122455000Y-59303072D01*
X122619250Y-59300000D01*
X122778000Y-59141250D01*
X122778000Y-58317000D01*
X123032000Y-58317000D01*
X123032000Y-59141250D01*
X123190750Y-59300000D01*
X123355000Y-59303072D01*
X123479482Y-59290812D01*
X123599180Y-59254502D01*
X123709494Y-59195537D01*
X123806185Y-59116185D01*
X123885537Y-59019494D01*
X123944502Y-58909180D01*
X123980812Y-58789482D01*
X123993072Y-58665000D01*
X123990000Y-58475750D01*
X123831250Y-58317000D01*
X123032000Y-58317000D01*
X122778000Y-58317000D01*
X122758000Y-58317000D01*
X122758000Y-58063000D01*
X122778000Y-58063000D01*
X122778000Y-57238750D01*
X123032000Y-57238750D01*
X123032000Y-58063000D01*
X123831250Y-58063000D01*
X123990000Y-57904250D01*
X123993072Y-57715000D01*
X123980812Y-57590518D01*
X123944502Y-57470820D01*
X123885537Y-57360506D01*
X123806185Y-57263815D01*
X123709494Y-57184463D01*
X123599180Y-57125498D01*
X123479482Y-57089188D01*
X123355000Y-57076928D01*
X123190750Y-57080000D01*
X123032000Y-57238750D01*
X122778000Y-57238750D01*
X122619250Y-57080000D01*
X122455000Y-57076928D01*
X122330518Y-57089188D01*
X122210820Y-57125498D01*
X122115000Y-57176716D01*
X122115000Y-56693284D01*
X122210820Y-56744502D01*
X122330518Y-56780812D01*
X122455000Y-56793072D01*
X122619250Y-56790000D01*
X122778000Y-56631250D01*
X122778000Y-55807000D01*
X123032000Y-55807000D01*
X123032000Y-56631250D01*
X123190750Y-56790000D01*
X123355000Y-56793072D01*
X123479482Y-56780812D01*
X123599180Y-56744502D01*
X123709494Y-56685537D01*
X123806185Y-56606185D01*
X123885537Y-56509494D01*
X123944502Y-56399180D01*
X123980812Y-56279482D01*
X123993072Y-56155000D01*
X123990000Y-55965750D01*
X123831250Y-55807000D01*
X123032000Y-55807000D01*
X122778000Y-55807000D01*
X122758000Y-55807000D01*
X122758000Y-55553000D01*
X122778000Y-55553000D01*
X122778000Y-54728750D01*
X123032000Y-54728750D01*
X123032000Y-55553000D01*
X123831250Y-55553000D01*
X123990000Y-55394250D01*
X123993072Y-55205000D01*
X123980812Y-55080518D01*
X123944502Y-54960820D01*
X123885537Y-54850506D01*
X123806185Y-54753815D01*
X123709494Y-54674463D01*
X123599180Y-54615498D01*
X123479482Y-54579188D01*
X123355000Y-54566928D01*
X123190750Y-54570000D01*
X123032000Y-54728750D01*
X122778000Y-54728750D01*
X122619250Y-54570000D01*
X122455000Y-54566928D01*
X122330518Y-54579188D01*
X122210820Y-54615498D01*
X122110000Y-54669388D01*
X122110000Y-53413284D01*
X122205820Y-53464502D01*
X122325518Y-53500812D01*
X122450000Y-53513072D01*
X122614250Y-53510000D01*
X122773000Y-53351250D01*
X122773000Y-52527000D01*
X123027000Y-52527000D01*
X123027000Y-53351250D01*
X123185750Y-53510000D01*
X123350000Y-53513072D01*
X123474482Y-53500812D01*
X123594180Y-53464502D01*
X123704494Y-53405537D01*
X123801185Y-53326185D01*
X123880537Y-53229494D01*
X123939502Y-53119180D01*
X123975812Y-52999482D01*
X123988072Y-52875000D01*
X123985000Y-52685750D01*
X123826250Y-52527000D01*
X123027000Y-52527000D01*
X122773000Y-52527000D01*
X122753000Y-52527000D01*
X122753000Y-52273000D01*
X122773000Y-52273000D01*
X122773000Y-51448750D01*
X123027000Y-51448750D01*
X123027000Y-52273000D01*
X123826250Y-52273000D01*
X123985000Y-52114250D01*
X123988072Y-51925000D01*
X123975812Y-51800518D01*
X123939502Y-51680820D01*
X123880537Y-51570506D01*
X123801185Y-51473815D01*
X123704494Y-51394463D01*
X123594180Y-51335498D01*
X123474482Y-51299188D01*
X123350000Y-51286928D01*
X123185750Y-51290000D01*
X123027000Y-51448750D01*
X122773000Y-51448750D01*
X122614250Y-51290000D01*
X122450000Y-51286928D01*
X122325518Y-51299188D01*
X122205820Y-51335498D01*
X122095506Y-51394463D01*
X122051351Y-51430700D01*
X121905283Y-51352625D01*
X121743377Y-51303512D01*
X121575000Y-51286928D01*
X121125000Y-51286928D01*
X120956623Y-51303512D01*
X120794717Y-51352625D01*
X120645503Y-51432382D01*
X120514716Y-51539716D01*
X120432415Y-51640000D01*
X115376320Y-51640000D01*
X115338997Y-51636324D01*
X115301674Y-51640000D01*
X115301665Y-51640000D01*
X115190012Y-51650997D01*
X115046751Y-51694454D01*
X114914722Y-51765026D01*
X114798997Y-51859999D01*
X114775199Y-51888997D01*
X113062015Y-53602182D01*
X113033011Y-53625985D01*
X112977883Y-53693160D01*
X112938038Y-53741710D01*
X112883260Y-53844192D01*
X112867466Y-53873740D01*
X112824009Y-54017001D01*
X112813012Y-54128654D01*
X112813012Y-54128664D01*
X112809336Y-54165986D01*
X112813012Y-54203309D01*
X112813012Y-54335376D01*
X109162635Y-50685000D01*
X124315001Y-50685000D01*
X124315000Y-74315000D01*
G37*
%TD.AperFunction*%
D22*
X111539956Y-70699814D02*
X111829571Y-70840704D01*
X112141108Y-70922384D01*
X112462595Y-70941718D01*
X112548904Y-70929882D01*
X111861192Y-71617595D01*
X111790017Y-71704321D01*
X111771473Y-71739014D01*
X111685913Y-71843269D01*
X111617663Y-71970956D01*
X111593639Y-72050153D01*
X111575635Y-72109503D01*
X111561444Y-72253588D01*
X111565000Y-72289693D01*
X111565001Y-73512314D01*
X111547909Y-73507130D01*
X111514391Y-73493246D01*
X111478807Y-73486168D01*
X111444085Y-73475635D01*
X111407978Y-73472079D01*
X111372391Y-73465000D01*
X111336105Y-73465000D01*
X111300000Y-73461444D01*
X111263895Y-73465000D01*
X111227609Y-73465000D01*
X111192021Y-73472079D01*
X111155916Y-73475635D01*
X111121195Y-73486167D01*
X111085609Y-73493246D01*
X111052090Y-73507130D01*
X111017367Y-73517663D01*
X110985366Y-73534768D01*
X110951847Y-73548652D01*
X110921678Y-73568810D01*
X110889681Y-73585913D01*
X110861639Y-73608926D01*
X110831465Y-73629088D01*
X110755802Y-73704751D01*
X110727763Y-73727762D01*
X110650483Y-73821928D01*
X110560000Y-73821928D01*
X110500000Y-73827837D01*
X110486990Y-73826556D01*
X110510319Y-73814086D01*
X110538354Y-73791078D01*
X110568535Y-73770912D01*
X110594203Y-73745244D01*
X110622237Y-73722237D01*
X110645244Y-73694203D01*
X110670912Y-73668535D01*
X110691078Y-73638354D01*
X110714086Y-73610319D01*
X110731185Y-73578330D01*
X110751348Y-73548153D01*
X110765235Y-73514626D01*
X110782336Y-73482633D01*
X110792866Y-73447919D01*
X110806754Y-73414391D01*
X110813835Y-73378795D01*
X110824364Y-73344084D01*
X110827919Y-73307989D01*
X110835000Y-73272391D01*
X110835000Y-73236094D01*
X110838555Y-73199999D01*
X110835000Y-73163904D01*
X110835000Y-73127609D01*
X110827919Y-73092013D01*
X110824364Y-73055914D01*
X110813834Y-73021200D01*
X110806754Y-72985609D01*
X110792868Y-72952085D01*
X110782336Y-72917366D01*
X110765233Y-72885369D01*
X110751348Y-72851847D01*
X110731189Y-72821677D01*
X110714086Y-72789679D01*
X110691071Y-72761635D01*
X110670912Y-72731465D01*
X110568535Y-72629088D01*
X108875062Y-70935616D01*
X108900000Y-70938072D01*
X110900000Y-70938072D01*
X111024482Y-70925812D01*
X111144180Y-70889502D01*
X111254494Y-70830537D01*
X111351185Y-70751185D01*
X111430537Y-70654494D01*
X111485976Y-70550777D01*
X111539956Y-70699814D01*
%TA.AperFunction,Conductor*%
D23*
G36*
X111539956Y-70699814D02*
G01*
X111829571Y-70840704D01*
X112141108Y-70922384D01*
X112462595Y-70941718D01*
X112548904Y-70929882D01*
X111861192Y-71617595D01*
X111790017Y-71704321D01*
X111771473Y-71739014D01*
X111685913Y-71843269D01*
X111617663Y-71970956D01*
X111593639Y-72050153D01*
X111575635Y-72109503D01*
X111561444Y-72253588D01*
X111565000Y-72289693D01*
X111565001Y-73512314D01*
X111547909Y-73507130D01*
X111514391Y-73493246D01*
X111478807Y-73486168D01*
X111444085Y-73475635D01*
X111407978Y-73472079D01*
X111372391Y-73465000D01*
X111336105Y-73465000D01*
X111300000Y-73461444D01*
X111263895Y-73465000D01*
X111227609Y-73465000D01*
X111192021Y-73472079D01*
X111155916Y-73475635D01*
X111121195Y-73486167D01*
X111085609Y-73493246D01*
X111052090Y-73507130D01*
X111017367Y-73517663D01*
X110985366Y-73534768D01*
X110951847Y-73548652D01*
X110921678Y-73568810D01*
X110889681Y-73585913D01*
X110861639Y-73608926D01*
X110831465Y-73629088D01*
X110755802Y-73704751D01*
X110727763Y-73727762D01*
X110650483Y-73821928D01*
X110560000Y-73821928D01*
X110500000Y-73827837D01*
X110486990Y-73826556D01*
X110510319Y-73814086D01*
X110538354Y-73791078D01*
X110568535Y-73770912D01*
X110594203Y-73745244D01*
X110622237Y-73722237D01*
X110645244Y-73694203D01*
X110670912Y-73668535D01*
X110691078Y-73638354D01*
X110714086Y-73610319D01*
X110731185Y-73578330D01*
X110751348Y-73548153D01*
X110765235Y-73514626D01*
X110782336Y-73482633D01*
X110792866Y-73447919D01*
X110806754Y-73414391D01*
X110813835Y-73378795D01*
X110824364Y-73344084D01*
X110827919Y-73307989D01*
X110835000Y-73272391D01*
X110835000Y-73236094D01*
X110838555Y-73199999D01*
X110835000Y-73163904D01*
X110835000Y-73127609D01*
X110827919Y-73092013D01*
X110824364Y-73055914D01*
X110813834Y-73021200D01*
X110806754Y-72985609D01*
X110792868Y-72952085D01*
X110782336Y-72917366D01*
X110765233Y-72885369D01*
X110751348Y-72851847D01*
X110731189Y-72821677D01*
X110714086Y-72789679D01*
X110691071Y-72761635D01*
X110670912Y-72731465D01*
X110568535Y-72629088D01*
X108875062Y-70935616D01*
X108900000Y-70938072D01*
X110900000Y-70938072D01*
X111024482Y-70925812D01*
X111144180Y-70889502D01*
X111254494Y-70830537D01*
X111351185Y-70751185D01*
X111430537Y-70654494D01*
X111485976Y-70550777D01*
X111539956Y-70699814D01*
G37*
%TD.AperFunction*%
D22*
X112593748Y-69285858D02*
X112579605Y-69300000D01*
X112593748Y-69314143D01*
X112414143Y-69493748D01*
X112400000Y-69479605D01*
X112385858Y-69493748D01*
X112206253Y-69314143D01*
X112220395Y-69300000D01*
X112206253Y-69285858D01*
X112385858Y-69106253D01*
X112400000Y-69120395D01*
X112414143Y-69106253D01*
X112593748Y-69285858D01*
%TA.AperFunction,Conductor*%
D23*
G36*
X112593748Y-69285858D02*
G01*
X112579605Y-69300000D01*
X112593748Y-69314143D01*
X112414143Y-69493748D01*
X112400000Y-69479605D01*
X112385858Y-69493748D01*
X112206253Y-69314143D01*
X112220395Y-69300000D01*
X112206253Y-69285858D01*
X112385858Y-69106253D01*
X112400000Y-69120395D01*
X112414143Y-69106253D01*
X112593748Y-69285858D01*
G37*
%TD.AperFunction*%
D22*
X112477000Y-63523000D02*
X112497000Y-63523000D01*
X112497000Y-63777000D01*
X112477000Y-63777000D01*
X112477000Y-63797000D01*
X112223000Y-63797000D01*
X112223000Y-63777000D01*
X112203000Y-63777000D01*
X112203000Y-63523000D01*
X112223000Y-63523000D01*
X112223000Y-63503000D01*
X112477000Y-63503000D01*
X112477000Y-63523000D01*
%TA.AperFunction,Conductor*%
D23*
G36*
X112477000Y-63523000D02*
G01*
X112497000Y-63523000D01*
X112497000Y-63777000D01*
X112477000Y-63777000D01*
X112477000Y-63797000D01*
X112223000Y-63797000D01*
X112223000Y-63777000D01*
X112203000Y-63777000D01*
X112203000Y-63523000D01*
X112223000Y-63523000D01*
X112223000Y-63503000D01*
X112477000Y-63503000D01*
X112477000Y-63523000D01*
G37*
%TD.AperFunction*%
D22*
X108297000Y-51968967D02*
X108297000Y-52127000D01*
X108277000Y-52127000D01*
X108277000Y-52951250D01*
X108435750Y-53110000D01*
X108600000Y-53113072D01*
X108724482Y-53100812D01*
X108844180Y-53064502D01*
X108954494Y-53005537D01*
X109051185Y-52926185D01*
X109130537Y-52829494D01*
X109139938Y-52811906D01*
X109528655Y-53200622D01*
X109518325Y-53202039D01*
X109213912Y-53307205D01*
X109039956Y-53400186D01*
X108944192Y-53664587D01*
X109900000Y-54620395D01*
X109914143Y-54606253D01*
X110093748Y-54785858D01*
X110079605Y-54800000D01*
X111035413Y-55755808D01*
X111299814Y-55660044D01*
X111440704Y-55370429D01*
X111494246Y-55166214D01*
X112090000Y-55761968D01*
X112090001Y-58392176D01*
X110118203Y-56420379D01*
X110281675Y-56397961D01*
X110586088Y-56292795D01*
X110760044Y-56199814D01*
X110855808Y-55935413D01*
X109900000Y-54979605D01*
X109885858Y-54993748D01*
X109706253Y-54814143D01*
X109720395Y-54800000D01*
X108764587Y-53844192D01*
X108500186Y-53939956D01*
X108359296Y-54229571D01*
X108277616Y-54541108D01*
X108275421Y-54577598D01*
X107986826Y-54289003D01*
X107963023Y-54259999D01*
X107847298Y-54165026D01*
X107715269Y-54094454D01*
X107572008Y-54050997D01*
X107460355Y-54040000D01*
X107460344Y-54040000D01*
X107423022Y-54036324D01*
X107385700Y-54040000D01*
X107360000Y-54040000D01*
X107360000Y-53013284D01*
X107455820Y-53064502D01*
X107575518Y-53100812D01*
X107700000Y-53113072D01*
X107864250Y-53110000D01*
X108023000Y-52951250D01*
X108023000Y-52127000D01*
X108003000Y-52127000D01*
X108003000Y-51873000D01*
X108023000Y-51873000D01*
X108023000Y-51853000D01*
X108181033Y-51853000D01*
X108297000Y-51968967D01*
%TA.AperFunction,Conductor*%
D23*
G36*
X108297000Y-51968967D02*
G01*
X108297000Y-52127000D01*
X108277000Y-52127000D01*
X108277000Y-52951250D01*
X108435750Y-53110000D01*
X108600000Y-53113072D01*
X108724482Y-53100812D01*
X108844180Y-53064502D01*
X108954494Y-53005537D01*
X109051185Y-52926185D01*
X109130537Y-52829494D01*
X109139938Y-52811906D01*
X109528655Y-53200622D01*
X109518325Y-53202039D01*
X109213912Y-53307205D01*
X109039956Y-53400186D01*
X108944192Y-53664587D01*
X109900000Y-54620395D01*
X109914143Y-54606253D01*
X110093748Y-54785858D01*
X110079605Y-54800000D01*
X111035413Y-55755808D01*
X111299814Y-55660044D01*
X111440704Y-55370429D01*
X111494246Y-55166214D01*
X112090000Y-55761968D01*
X112090001Y-58392176D01*
X110118203Y-56420379D01*
X110281675Y-56397961D01*
X110586088Y-56292795D01*
X110760044Y-56199814D01*
X110855808Y-55935413D01*
X109900000Y-54979605D01*
X109885858Y-54993748D01*
X109706253Y-54814143D01*
X109720395Y-54800000D01*
X108764587Y-53844192D01*
X108500186Y-53939956D01*
X108359296Y-54229571D01*
X108277616Y-54541108D01*
X108275421Y-54577598D01*
X107986826Y-54289003D01*
X107963023Y-54259999D01*
X107847298Y-54165026D01*
X107715269Y-54094454D01*
X107572008Y-54050997D01*
X107460355Y-54040000D01*
X107460344Y-54040000D01*
X107423022Y-54036324D01*
X107385700Y-54040000D01*
X107360000Y-54040000D01*
X107360000Y-53013284D01*
X107455820Y-53064502D01*
X107575518Y-53100812D01*
X107700000Y-53113072D01*
X107864250Y-53110000D01*
X108023000Y-52951250D01*
X108023000Y-52127000D01*
X108003000Y-52127000D01*
X108003000Y-51873000D01*
X108023000Y-51873000D01*
X108023000Y-51853000D01*
X108181033Y-51853000D01*
X108297000Y-51968967D01*
G37*
%TD.AperFunction*%
%TD*%
M02*
